<svg xmlns:xlink="http://www.w3.org/1999/xlink" xmlns="http://www.w3.org/2000/svg" class="style-svg entered lazyloaded replaced-svg svg-replaced-4" id="svg-replaced-4" viewBox="0 0 40 40" height="40px" width="40px"><title>Artboard</title><desc>Created with Sketch.</desc><defs></defs><g fill-rule="evenodd" fill="none" stroke-width="1" stroke="none" id="Page-1"><g fill-rule="nonzero" id="Artboard"><g transform="translate(1.000000, 1.000000)" id="football.1"><path fill="#D3D3D3" id="Shape" d="M7.5,37.75 C6.75,37.75 6,37.75 5.25,37.625 C2.625,37.375 0.5,35.375 0.25,32.625 C0.125,30.5 0.125,28.5 0.375,26.375 L0.375,26.375 C2.25,13 13,2.25 26.5,0.5 C28.625,0.25 30.625,0.125 32.75,0.375 C35.375,0.625 37.5,2.625 37.75,5.375 C37.875,7.5 37.875,9.5 37.625,11.625 C35.75,25 25,35.75 11.5,37.5 C10.125,37.625 8.875,37.75 7.5,37.75 Z M1.75,26.625 C1.5,28.625 1.375,30.625 1.625,32.625 C1.75,34.625 3.375,36.25 5.375,36.375 C7.375,36.5 9.375,36.5 11.375,36.25 C24.125,34.625 34.625,24.125 36.25,11.375 C36.5,9.375 36.625,7.375 36.375,5.375 C36.25,3.375 34.625,1.75 32.625,1.625 C30.625,1.5 28.625,1.5 26.625,1.75 C13.875,3.375 3.375,13.875 1.75,26.625 L1.75,26.625 Z"></path><path fill="#F56920" id="Shape" d="M2.75,36.5 L2.75,36.5 C2.375,36.5 2.125,36.125 2.125,35.75 C3.75,21.625 21.75,3.75 35.75,2.125 C36.125,2.125 36.375,2.375 36.5,2.625 C36.5,3 36.25,3.25 36,3.375 C22.375,4.875 5,22.25 3.375,36 C3.375,36.25 3,36.5 2.75,36.5 Z"></path><path fill="#F56920" id="Shape" d="M14.625,17.75 C14.5,17.75 14.25,17.75 14.125,17.625 L11.625,15.125 C11.375,14.875 11.375,14.5 11.625,14.25 C11.875,14 12.25,14 12.5,14.25 L15,16.75 C15.25,17 15.25,17.375 15,17.625 C15,17.75 14.75,17.75 14.625,17.75 Z"></path><path fill="#F56920" id="Shape" d="M11.5,20.875 C11.375,20.875 11.125,20.875 11,20.75 L8.5,18.25 C8.25,18 8.25,17.625 8.5,17.375 C8.75,17.125 9.125,17.125 9.375,17.375 L11.875,19.875 C12.125,20.125 12.125,20.5 11.875,20.75 C11.875,20.875 11.625,20.875 11.5,20.875 Z"></path><path fill="#F56920" id="Shape" d="M17.75,14.625 C17.625,14.625 17.375,14.625 17.25,14.5 L14.75,12 C14.5,11.75 14.5,11.375 14.75,11.125 C15,10.875 15.375,10.875 15.625,11.125 L18.125,13.625 C18.375,13.875 18.375,14.25 18.125,14.5 C18.125,14.625 17.875,14.625 17.75,14.625 Z"></path><path fill="#F56920" id="Shape" d="M21.5,11.5 C21.375,11.5 21.125,11.5 21,11.375 L18.5,8.875 C18.25,8.625 18.25,8.25 18.5,8 C18.75,7.75 19.125,7.75 19.375,8 L21.875,10.5 C22.125,10.75 22.125,11.125 21.875,11.375 C21.875,11.5 21.625,11.5 21.5,11.5 Z"></path></g></g></g></svg>