<svg xmlns:xlink="http://www.w3.org/1999/xlink" xmlns="http://www.w3.org/2000/svg" class="style-svg entered lazyloaded replaced-svg svg-replaced-2" id="svg-replaced-2" viewBox="0 0 40 40" height="40px" width="40px"><title>Artboard</title><desc>Created with Sketch.</desc><defs></defs><g fill-rule="evenodd" fill="none" stroke-width="1" stroke="none" id="Page-1"><g fill-rule="nonzero" id="Artboard"><g id="basket-ball.1"><path fill="#F56920" id="Shape" d="M38,16.6666667 C37.8666667,16.6666667 37.6,16.5333333 37.4666667,16.4 C31.7333333,9.46666667 24.1333333,8.4 18.8,8.66666667 C11.2,9.2 4.53333333,12.6666667 2.53333333,15.6 C2.4,15.8666667 1.86666667,16 1.6,15.8666667 C1.33333333,15.7333333 1.2,15.2 1.33333333,14.9333333 C3.6,11.6 10.5333333,7.86666667 18.6666667,7.46666667 C24.2666667,7.06666667 32.4,8.26666667 38.5333333,15.6 C38.8,15.8666667 38.6666667,16.2666667 38.4,16.5333333 C38.2666667,16.6666667 38.1333333,16.6666667 38,16.6666667 Z"></path><path fill="#F56920" id="Shape" d="M4.66666667,30.6666667 C4.26666667,30.6666667 4,30.4 4,30 C4,28 6.53333333,25.2 9.73333333,21.6 C13.4666667,17.4666667 18,12.2666667 18,8.66666667 C18,6.53333333 17.4666667,5.06666667 16.4,4.26666667 C15.0666667,3.2 13.3333333,3.33333333 13.3333333,3.33333333 C12.9333333,3.33333333 12.6666667,3.2 12.5333333,2.8 C12.5333333,2.4 12.6666667,2.13333333 13.0666667,2 C13.2,2 15.3333333,1.73333333 17.2,3.2 C18.5333333,4.4 19.2,6.13333333 19.2,8.66666667 C19.2,12.8 14.6666667,17.8666667 10.6666667,22.4 C8,25.4666667 5.2,28.5333333 5.2,30 C5.33333333,30.4 5.06666667,30.6666667 4.66666667,30.6666667 Z"></path><path fill="#F56920" id="Shape" d="M16.6666667,38.6666667 C16.5333333,38.6666667 16.4,38.6666667 16.4,38.5333333 C16.1333333,38.4 16,38 16.1333333,37.6 C21.0666667,29.0666667 22,25.0666667 22,1.86666667 C22,1.6 22.2666667,1.33333333 22.6666667,1.33333333 C23.0666667,1.33333333 23.3333333,1.6 23.3333333,2 C23.3333333,24.1333333 22.5333333,29.2 17.2,38.2666667 C17.0666667,38.5333333 16.9333333,38.6666667 16.6666667,38.6666667 Z"></path><path fill="#F56920" id="Shape" d="M32,34.6666667 C31.8666667,34.6666667 31.7333333,34.6666667 31.6,34.5333333 C31.3333333,34.4 31.2,33.8666667 31.3333333,33.6 C33.8666667,29.6 32,25.0666667 30,20.2666667 C28.6666667,17.0666667 27.2,13.7333333 27.2,10.4 C27.2,5.2 31.0666667,4.53333333 31.0666667,4.53333333 C31.4666667,4.53333333 31.7333333,4.8 31.8666667,5.06666667 C31.8666667,5.46666667 31.6,5.73333333 31.3333333,5.86666667 C31.2,5.86666667 28.5333333,6.26666667 28.5333333,10.4 C28.5333333,13.4666667 29.8666667,16.6666667 31.2,19.7333333 C33.2,24.6666667 35.3333333,29.6 32.4,34.2666667 C32.4,34.5333333 32.2666667,34.6666667 32,34.6666667 Z"></path><path fill="#D3D3D3" id="Shape" d="M20,39.3333333 C9.33333333,39.3333333 0.666666667,30.6666667 0.666666667,20 C0.666666667,9.33333333 9.33333333,0.666666667 20,0.666666667 C30.6666667,0.666666667 39.3333333,9.33333333 39.3333333,20 C39.3333333,30.6666667 30.6666667,39.3333333 20,39.3333333 Z M20,2 C10.1333333,2 2,10.1333333 2,20 C2,29.8666667 10.1333333,38 20,38 C29.8666667,38 38,29.8666667 38,20 C38,10.1333333 29.8666667,2 20,2 Z"></path></g></g></g></svg>