<svg xmlns="http://www.w3.org/2000/svg" width="22.999" height="16.587" viewBox="0 0 22.999 16.587"><g id="mail" transform="translate(0 -71.373)"><g id="Group_41" data-name="Group 41" transform="translate(0 71.373)"><g id="Group_40" data-name="Group 40"><path id="Path_52" data-name="Path 52" d="M21.674,71.373H1.325A1.326,1.326,0,0,0,0,72.7V86.635A1.326,1.326,0,0,0,1.325,87.96H21.674A1.326,1.326,0,0,0,23,86.635V72.7A1.326,1.326,0,0,0,21.674,71.373Zm-.265,15H1.59V72.963H21.409V86.37Z" transform="translate(0 -71.373)" fill="#0c0c0c"></path></g></g><g id="Group_43" data-name="Group 43" transform="translate(0.386 73.102)"><g id="Group_42" data-name="Group 42"><path id="Path_53" data-name="Path 53" d="M30,109.868l-10.309,6.175L9.406,109.868l-.818,1.363,10.428,6.262a1.376,1.376,0,0,0,.682.184,1.276,1.276,0,0,0,.689-.2l10.427-6.246Z" transform="translate(-8.588 -109.868)" fill="#0c0c0c"></path></g></g><g id="Group_45" data-name="Group 45" transform="translate(13.696 77.965)"><g id="Group_44" data-name="Group 44" transform="translate(0 0)"><rect id="Rectangle_158" data-name="Rectangle 158" width="1.59" height="11.741" transform="translate(0 1.073) rotate(-42.439)" fill="#0c0c0c"></rect></g></g><g id="Group_47" data-name="Group 47" transform="translate(0.208 77.989)"><g id="Group_46" data-name="Group 46" transform="translate(0 0)"><rect id="Rectangle_159" data-name="Rectangle 159" width="11.704" height="1.59" transform="translate(0 8.638) rotate(-47.569)" fill="#0c0c0c"></rect></g></g></g></svg>