<svg xmlns="http://www.w3.org/2000/svg" xmlns:xlink="http://www.w3.org/1999/xlink" width="40px" height="40px" viewBox="0 0 40 40"><title>Artboard</title><desc>Created with Sketch.</desc><defs></defs><g id="Page-1" stroke="none" stroke-width="1" fill="none" fill-rule="evenodd"><g id="Artboard" fill-rule="nonzero"><g id="steve-jobs.1"><path d="M19.8511166,29.1149711 C15.483871,29.1149711 11.6459884,24.4830438 10.3225806,19.7187758 C8.99917287,19.7187758 7.94044665,17.9983457 7.94044665,15.7485525 C7.94044665,15.0868486 8.07278743,14.4251447 8.20512821,13.8957816 C8.07278743,13.101737 7.94044665,12.0430108 7.94044665,11.2489661 C7.94044665,5.02894955 13.2340778,0 19.7187758,0 C26.2034739,0 31.7617866,5.16129032 31.7617866,11.2489661 C31.7617866,12.0430108 31.6294458,13.101737 31.497105,13.8957816 C31.6294458,14.4251447 31.7617866,15.0868486 31.7617866,15.7485525 C31.7617866,17.9983457 30.7030604,19.7187758 29.3796526,19.7187758 C28.0562448,24.4830438 24.2183623,29.1149711 19.8511166,29.1149711 Z M10.719603,18.2630273 L10.9842845,18.2630273 C11.1166253,18.3953681 11.3813069,18.5277089 11.3813069,18.6600496 C12.5723739,23.6889992 16.4102564,27.7915633 19.8511166,27.7915633 C23.2919768,27.7915633 27.1298594,23.6889992 28.3209264,18.6600496 C28.3209264,18.3953681 28.5856079,18.2630273 28.7179487,18.2630273 C28.8502895,18.1306865 29.1149711,18.2630273 29.3796526,18.2630273 L29.5119934,18.2630273 C29.9090157,18.2630273 30.5707196,17.2043011 30.5707196,15.6162117 C30.5707196,15.0868486 30.4383788,14.4251447 30.306038,14.0281224 L30.306038,13.6311001 C30.306038,13.101737 30.4383788,12.0430108 30.4383788,11.2489661 C30.4383788,5.82299421 25.5417701,1.32340778 19.7187758,1.32340778 C13.8957816,1.32340778 9.26385443,5.82299421 9.26385443,11.2489661 C9.26385443,12.0430108 9.3961952,13.101737 9.52853598,13.7634409 L9.52853598,14.1604632 C9.3961952,14.5574855 9.26385443,15.0868486 9.26385443,15.7485525 C9.26385443,17.3366419 9.92555831,18.3953681 10.3225806,18.3953681 L10.4549214,18.3953681 C10.4549214,18.2630273 10.5872622,18.2630273 10.719603,18.2630273 Z" id="Shape" fill="#D3D3D3"></path><path d="M39.0405294,39.7022333 L0.661703888,39.7022333 C0.264681555,39.7022333 0,39.4375517 0,39.0405294 L0,37.45244 C0,32.9528536 2.91149711,28.9826303 7.14640199,27.3945409 L11.5136476,26.2034739 C11.7783292,26.2034739 12.0430108,26.2034739 12.1753515,26.3358147 C14.1604632,28.5856079 16.9396195,31.6294458 19.8511166,31.6294458 C22.7626137,31.6294458 25.4094293,28.5856079 27.5268817,26.3358147 C27.6592225,26.2034739 27.9239041,26.0711332 28.1885856,26.2034739 L32.4234905,27.3945409 L32.4234905,27.3945409 C36.7907361,28.8502895 39.834574,33.2175352 39.834574,37.7171216 L39.834574,38.9081886 C39.7022333,39.4375517 39.4375517,39.7022333 39.0405294,39.7022333 Z M1.32340778,38.3788255 L38.3788255,38.3788255 L38.3788255,37.8494624 C38.3788255,34.0115798 35.5996691,30.0413565 31.8941274,28.7179487 L28.0562448,27.6592225 C25.9387924,30.0413565 23.0272953,33.0851944 19.7187758,33.0851944 C16.4102564,33.0851944 13.4987593,30.0413565 11.3813069,27.6592225 L7.54342432,28.7179487 C3.83788255,30.0413565 1.32340778,33.4822167 1.32340778,37.45244 L1.32340778,38.3788255 L1.32340778,38.3788255 Z" id="Shape" fill="#D3D3D3"></path><path d="M30.4383788,14.5574855 L28.4532672,14.5574855 C28.1885856,14.5574855 27.9239041,14.292804 27.7915633,14.0281224 C27.7915633,13.8957816 26.8651778,9.79321754 26.6004963,6.88172043 C26.4681555,5.69065343 25.4094293,4.63192721 24.2183623,4.63192721 C23.2919768,4.63192721 22.630273,5.16129032 21.9685691,5.82299421 C21.3068652,6.35235732 20.6451613,6.61703888 19.8511166,6.61703888 C18.7923904,6.61703888 17.9983457,6.61703888 17.3366419,5.82299421 C16.674938,5.02894955 16.0132341,4.63192721 15.483871,4.63192721 C13.8957816,4.63192721 12.7047146,5.82299421 12.5723739,7.27874276 L11.91067,13.8957816 C11.91067,14.0281224 11.7783292,14.292804 11.6459884,14.292804 C11.5136476,14.292804 11.3813069,14.5574855 11.1166253,14.5574855 C11.1166253,14.5574855 10.1902399,14.4251447 9.13151365,14.4251447 C8.73449132,14.4251447 8.46980976,14.1604632 8.46980976,13.7634409 C8.46980976,13.3664185 8.86683209,13.101737 9.26385443,13.101737 C9.79321754,13.101737 10.3225806,13.101737 10.719603,13.2340778 L11.3813069,7.27874276 C11.5136476,5.02894955 13.4987593,3.30851944 15.6162117,3.30851944 C16.674938,3.30851944 17.7336642,4.23490488 18.3953681,5.02894955 C18.6600496,5.2936311 19.057072,5.2936311 19.8511166,5.2936311 C20.248139,5.2936311 20.6451613,5.16129032 21.0421836,4.76426799 C21.8362283,4.1025641 22.8949545,3.30851944 24.2183623,3.30851944 C26.2034739,3.30851944 27.7915633,4.76426799 27.9239041,6.74937965 C28.0562448,8.99917287 28.7179487,12.0430108 28.9826303,13.2340778 L30.4383788,13.2340778 C30.8354012,13.2340778 31.1000827,13.4987593 31.1000827,13.8957816 C31.1000827,14.292804 30.8354012,14.5574855 30.4383788,14.5574855 Z" id="Shape" fill="#D3D3D3"></path><path d="M20.5128205,25.1447477 L19.1894127,25.1447477 C18.7923904,25.1447477 18.5277089,24.8800662 18.5277089,24.4830438 C18.5277089,24.0860215 18.7923904,23.82134 19.1894127,23.82134 L20.5128205,23.82134 C20.9098428,23.82134 21.1745244,24.0860215 21.1745244,24.4830438 C21.1745244,24.8800662 20.9098428,25.1447477 20.5128205,25.1447477 Z" id="Shape" fill="#F56920"></path><path d="M12.5723739,16.5425972 C12.4400331,16.5425972 12.1753515,16.5425972 12.0430108,16.4102564 L10.0578991,14.4251447 C9.79321754,14.1604632 9.79321754,13.7634409 10.0578991,13.4987593 C10.3225806,13.2340778 10.719603,13.2340778 10.9842845,13.4987593 L12.9693962,15.483871 C13.2340778,15.7485525 13.2340778,16.1455749 12.9693962,16.4102564 C12.9693962,16.5425972 12.7047146,16.5425972 12.5723739,16.5425972 Z" id="Shape" fill="#F56920"></path><path d="M27.1298594,16.5425972 C26.9975186,16.5425972 26.8651778,16.5425972 26.7328371,16.4102564 C26.4681555,16.1455749 26.3358147,15.7485525 26.6004963,15.483871 L27.9239041,13.4987593 C28.1885856,13.2340778 28.5856079,13.101737 28.8502895,13.3664185 C29.1149711,13.6311001 29.2473118,14.0281224 28.9826303,14.292804 L27.6592225,16.2779156 C27.5268817,16.4102564 27.3945409,16.5425972 27.1298594,16.5425972 Z" id="Shape" fill="#F56920"></path><path d="M21.8362283,16.5425972 C21.7038875,16.5425972 21.5715467,16.5425972 21.439206,16.4102564 C21.439206,16.4102564 20.6451613,15.8808933 19.8511166,15.8808933 C19.057072,15.8808933 18.2630273,16.4102564 18.2630273,16.4102564 C17.9983457,16.674938 17.6013234,16.5425972 17.3366419,16.2779156 C17.0719603,16.0132341 17.2043011,15.6162117 17.4689826,15.3515302 C17.4689826,15.3515302 18.5277089,14.5574855 19.8511166,14.5574855 C21.1745244,14.5574855 22.2332506,15.3515302 22.2332506,15.3515302 C22.4979322,15.6162117 22.630273,16.0132341 22.3655914,16.2779156 C22.2332506,16.4102564 22.1009098,16.5425972 21.8362283,16.5425972 Z" id="Shape" fill="#F56920"></path><path d="M24.4830438,19.8511166 C22.630273,19.8511166 21.1745244,18.3953681 21.1745244,16.5425972 C21.1745244,14.6898263 22.630273,13.2340778 24.4830438,13.2340778 C26.3358147,13.2340778 27.7915633,14.6898263 27.7915633,16.5425972 C27.7915633,18.3953681 26.3358147,19.8511166 24.4830438,19.8511166 Z M24.4830438,14.5574855 C23.4243176,14.5574855 22.4979322,15.483871 22.4979322,16.5425972 C22.4979322,17.6013234 23.4243176,18.5277089 24.4830438,18.5277089 C25.5417701,18.5277089 26.4681555,17.6013234 26.4681555,16.5425972 C26.4681555,15.483871 25.5417701,14.5574855 24.4830438,14.5574855 Z" id="Shape" fill="#F56920"></path><path d="M15.2191894,19.8511166 C13.3664185,19.8511166 11.91067,18.3953681 11.91067,16.5425972 C11.91067,14.6898263 13.3664185,13.2340778 15.2191894,13.2340778 C17.0719603,13.2340778 18.5277089,14.6898263 18.5277089,16.5425972 C18.5277089,18.3953681 17.0719603,19.8511166 15.2191894,19.8511166 Z M15.2191894,14.5574855 C14.1604632,14.5574855 13.2340778,15.483871 13.2340778,16.5425972 C13.2340778,17.6013234 14.1604632,18.5277089 15.2191894,18.5277089 C16.2779156,18.5277089 17.2043011,17.6013234 17.2043011,16.5425972 C17.2043011,15.483871 16.2779156,14.5574855 15.2191894,14.5574855 Z" id="Shape" fill="#F56920"></path></g></g></g></svg>