<svg xmlns="http://www.w3.org/2000/svg" xmlns:xlink="http://www.w3.org/1999/xlink" width="40px" height="40px" viewBox="0 0 40 40"><title>Artboard</title><desc>Created with Sketch.</desc><defs></defs><g id="Page-1" stroke="none" stroke-width="1" fill="none" fill-rule="evenodd"><g id="Artboard" fill-rule="nonzero"><g id="skate-board.2"><path d="M10.8387097,33.6774194 C10.7096774,33.6774194 10.4516129,33.6774194 10.3225806,33.5483871 L5.16129032,28.3870968 C4.90322581,28.1290323 4.90322581,27.7419355 5.16129032,27.483871 C5.41935484,27.2258065 5.80645161,27.2258065 6.06451613,27.483871 L11.2258065,32.6451613 C11.483871,32.9032258 11.483871,33.2903226 11.2258065,33.5483871 C11.2258065,33.5483871 11.0967742,33.6774194 10.8387097,33.6774194 Z" id="Shape" fill="#D3D3D3"></path><path d="M32.7741935,11.7419355 C32.6451613,11.7419355 32.3870968,11.7419355 32.2580645,11.6129032 L27.0967742,6.4516129 C26.8387097,6.19354839 26.8387097,5.80645161 27.0967742,5.5483871 C27.3548387,5.29032258 27.7419355,5.29032258 28,5.5483871 L33.1612903,10.7096774 C33.4193548,10.9677419 33.4193548,11.3548387 33.1612903,11.6129032 C33.1612903,11.6129032 33.0322581,11.7419355 32.7741935,11.7419355 Z" id="Shape" fill="#D3D3D3"></path><path d="M16,31.0967742 C15.8709677,31.0967742 15.6129032,31.0967742 15.483871,30.9677419 L7.74193548,23.2258065 C7.48387097,22.9677419 7.48387097,22.5806452 7.74193548,22.3225806 C8,22.0645161 8.38709677,22.0645161 8.64516129,22.3225806 L16.3870968,30.0645161 C16.6451613,30.3225806 16.6451613,30.7096774 16.3870968,30.9677419 C16.3870968,30.9677419 16.2580645,31.0967742 16,31.0967742 Z" id="Shape" fill="#D3D3D3"></path><path d="M30.8387097,16.2580645 C30.7096774,16.2580645 30.4516129,16.2580645 30.3225806,16.1290323 L22.5806452,8.38709677 C22.3225806,8.12903226 22.3225806,7.74193548 22.5806452,7.48387097 C22.8387097,7.22580645 23.2258065,7.22580645 23.483871,7.48387097 L31.2258065,15.2258065 C31.483871,15.483871 31.483871,15.8709677 31.2258065,16.1290323 C31.2258065,16.1290323 31.0967742,16.2580645 30.8387097,16.2580645 Z" id="Shape" fill="#D3D3D3"></path><path d="M7.22580645,38.8387097 C5.41935484,38.8387097 3.61290323,38.0645161 2.19354839,36.6451613 C0.774193548,35.2258065 0,33.2903226 0,31.483871 C0,29.6774194 0.774193548,28 2.19354839,26.5806452 L5.41935484,23.2258065 C5.67741935,22.9677419 6.06451613,22.9677419 6.32258065,23.2258065 C6.58064516,23.483871 6.58064516,23.8709677 6.32258065,24.1290323 L3.09677419,27.3548387 C1.93548387,28.516129 1.29032258,29.9354839 1.29032258,31.3548387 C1.29032258,32.9032258 1.93548387,34.4516129 3.09677419,35.6129032 C4.25806452,36.7741935 5.80645161,37.4193548 7.22580645,37.4193548 L7.22580645,37.4193548 C8.64516129,37.4193548 10.1935484,36.7741935 11.3548387,35.6129032 L14.5806452,32.3870968 C14.8387097,32.1290323 15.2258065,32.1290323 15.483871,32.3870968 C15.7419355,32.6451613 15.7419355,33.0322581 15.483871,33.2903226 L12.2580645,36.516129 C10.8387097,38.0645161 9.03225806,38.8387097 7.22580645,38.8387097 L7.22580645,38.8387097 Z" id="Shape" fill="#D3D3D3"></path><path d="M9.16129032,21.0322581 C9.03225806,21.0322581 8.77419355,20.9032258 8.64516129,20.9032258 C8.38709677,20.6451613 8.38709677,20.2580645 8.64516129,20 L20.1290323,8.77419355 C20.3870968,8.51612903 20.7741935,8.51612903 21.0322581,8.77419355 C21.2903226,9.03225806 21.2903226,9.41935484 21.0322581,9.67741935 L9.5483871,20.9032258 C9.41935484,20.9032258 9.29032258,21.0322581 9.16129032,21.0322581 Z" id="Shape" fill="#D3D3D3"></path><path d="M33.0322581,15.6129032 C32.9032258,15.6129032 32.6451613,15.6129032 32.516129,15.483871 C32.2580645,15.2258065 32.2580645,14.8387097 32.516129,14.5806452 L35.7419355,11.3548387 C38.0645161,9.03225806 38.0645161,5.29032258 35.7419355,3.09677419 C33.4193548,0.774193548 29.6774194,0.774193548 27.483871,3.09677419 L24.2580645,6.32258065 C24,6.58064516 23.6129032,6.58064516 23.3548387,6.32258065 C23.0967742,6.06451613 23.0967742,5.67741935 23.3548387,5.41935484 L26.5806452,2.19354839 C29.4193548,-0.64516129 33.9354839,-0.64516129 36.6451613,2.19354839 C39.483871,5.03225806 39.483871,9.5483871 36.6451613,12.2580645 L33.4193548,15.483871 C33.2903226,15.483871 33.1612903,15.6129032 33.0322581,15.6129032 Z" id="Shape" fill="#D3D3D3"></path><path d="M18.3225806,30.1935484 C18.1935484,30.1935484 17.9354839,30.1935484 17.8064516,30.0645161 C17.5483871,29.8064516 17.5483871,29.4193548 17.8064516,29.1612903 L29.1612903,17.8064516 C29.4193548,17.5483871 29.8064516,17.5483871 30.0645161,17.8064516 C30.3225806,18.0645161 30.3225806,18.4516129 30.0645161,18.7096774 L18.7096774,30.0645161 C18.7096774,30.1935484 18.4516129,30.1935484 18.3225806,30.1935484 Z" id="Shape" fill="#D3D3D3"></path><g id="Group" transform="translate(2.580645, 2.580645)" fill="#F56920"><path d="M3.74193548,22.0645161 C3.61290323,22.0645161 3.35483871,22.0645161 3.22580645,21.9354839 L0.64516129,19.3548387 C0.387096774,19.0967742 0.387096774,18.7096774 0.64516129,18.4516129 L3.87096774,15.2258065 C4.12903226,14.9677419 4.51612903,14.9677419 4.77419355,15.2258065 L7.35483871,17.8064516 C7.61290323,18.0645161 7.61290323,18.4516129 7.35483871,18.7096774 L4.12903226,21.9354839 C4.12903226,21.9354839 4,22.0645161 3.74193548,22.0645161 Z M2.19354839,18.8387097 L3.87096774,20.516129 L6.19354839,18.1935484 L4.51612903,16.516129 L2.19354839,18.8387097 Z" id="Shape"></path><path d="M14.7096774,33.0322581 C14.5806452,33.0322581 14.3225806,33.0322581 14.1935484,32.9032258 L11.6129032,30.3225806 C11.3548387,30.0645161 11.3548387,29.6774194 11.6129032,29.4193548 L14.8387097,26.1935484 C15.0967742,25.9354839 15.483871,25.9354839 15.7419355,26.1935484 L18.3225806,28.7741935 C18.5806452,29.0322581 18.5806452,29.4193548 18.3225806,29.6774194 L15.0967742,32.9032258 C15.0967742,32.9032258 14.9677419,33.0322581 14.7096774,33.0322581 Z M13.1612903,29.8064516 L14.8387097,31.483871 L17.1612903,29.1612903 L15.483871,27.483871 L13.1612903,29.8064516 Z" id="Shape"></path><path d="M18.5806452,7.87096774 C18.4516129,7.87096774 18.1935484,7.87096774 18.0645161,7.74193548 L15.483871,5.16129032 C15.3548387,5.03225806 15.3548387,4.90322581 15.3548387,4.64516129 C15.3548387,4.38709677 15.483871,4.25806452 15.483871,4.12903226 L18.7096774,0.903225806 C18.9677419,0.64516129 19.3548387,0.64516129 19.6129032,0.903225806 L22.1935484,3.48387097 C22.3225806,3.61290323 22.3225806,3.74193548 22.3225806,4 C22.3225806,4.25806452 22.1935484,4.38709677 22.1935484,4.51612903 L18.9677419,7.74193548 C18.9677419,7.74193548 18.8387097,7.87096774 18.5806452,7.87096774 Z M16.9032258,4.64516129 L18.5806452,6.32258065 L20.9032258,4 L19.2258065,2.32258065 L16.9032258,4.64516129 Z" id="Shape"></path><path d="M28.9032258,18.1935484 L28.9032258,18.1935484 C28.7741935,18.1935484 28.516129,18.0645161 28.3870968,18.0645161 L25.8064516,15.483871 C25.5483871,15.2258065 25.5483871,14.8387097 25.8064516,14.5806452 L29.0322581,11.3548387 C29.1612903,11.2258065 29.2903226,11.0967742 29.5483871,11.2258065 C29.6774194,11.2258065 29.9354839,11.3548387 30.0645161,11.3548387 L32.6451613,13.9354839 C32.9032258,14.1935484 32.9032258,14.5806452 32.6451613,14.8387097 L29.4193548,18.0645161 C29.2903226,18.0645161 29.1612903,18.1935484 28.9032258,18.1935484 Z M27.3548387,14.9677419 L29.0322581,16.6451613 L31.3548387,14.3225806 L29.6774194,12.6451613 L27.3548387,14.9677419 Z" id="Shape"></path></g></g></g></g></svg>