<svg xmlns="http://www.w3.org/2000/svg" xmlns:xlink="http://www.w3.org/1999/xlink" id="Capa_1" x="0px" y="0px" viewBox="0 0 512 512" style="enable-background:new 0 0 512 512;" xml:space="preserve"><g>	<g>		<path d="M437.02,74.98C388.667,26.629,324.381,0,256.001,0c-37.732,0-74.076,8.021-108.018,23.84    c-3.758,1.751-5.384,6.217-3.633,9.974c1.751,3.757,6.218,5.383,9.974,3.633c29.686-13.835,61.332-21.322,94.171-22.311v81.331    l-125.997,89.392c-0.265,0.188-0.514,0.394-0.75,0.612c-0.071,0.066-0.134,0.139-0.203,0.208c-0.159,0.159-0.315,0.32-0.458,0.492    c-0.076,0.091-0.144,0.186-0.215,0.28c-0.123,0.162-0.241,0.325-0.35,0.496c-0.067,0.105-0.129,0.213-0.191,0.322    c-0.097,0.17-0.187,0.343-0.271,0.52c-0.054,0.115-0.106,0.231-0.155,0.349c-0.075,0.183-0.14,0.37-0.2,0.559    c-0.038,0.118-0.077,0.234-0.109,0.354c-0.055,0.208-0.096,0.42-0.133,0.633c-0.019,0.105-0.044,0.209-0.058,0.315    c-0.042,0.322-0.068,0.648-0.068,0.977v36.919c0,4.146,3.361,7.506,7.506,7.506c4.145,0,7.506-3.36,7.506-7.506v-22.389    l114.148,80.985v122.541l-114.148-80.986v-70.126c0-4.146-3.361-7.506-7.506-7.506c-4.145,0-7.506,3.36-7.506,7.506v70.051    l-71.314,48.93c-21.52-36.571-33.01-78.351-33.01-121.903c0-41.596,10.767-82.596,31.137-118.569    c19.757-34.891,48.182-64.584,82.198-85.872c3.514-2.199,4.581-6.829,2.381-10.344c-2.199-3.514-6.83-4.583-10.344-2.381    C84.258,61.44,54.071,92.975,33.087,130.032C11.441,168.257,0.001,211.816,0.001,256c0,68.38,26.629,132.667,74.98,181.02    C123.333,485.371,187.62,512,256,512s132.667-26.628,181.019-74.98c48.352-48.353,74.98-112.64,74.98-181.02    C512,187.62,485.372,123.333,437.02,74.98z M139.812,191.98l116.189-82.432l116.188,82.432l-116.188,82.432L139.812,191.98z     M426.405,426.404c-45.516,45.517-106.035,70.584-170.404,70.584c-64.37,0-124.887-25.068-170.405-70.584    c-11.093-11.093-20.96-23.082-29.557-35.795l70.73-48.53l124.889,88.605c0.002,0.001,0.003,0.002,0.005,0.003    c0.282,0.2,0.58,0.382,0.893,0.543c0.02,0.01,0.041,0.017,0.061,0.027c0.081,0.041,0.164,0.071,0.246,0.109    c0.242,0.111,0.486,0.212,0.737,0.296c0.111,0.037,0.222,0.07,0.334,0.102c0.239,0.069,0.479,0.124,0.723,0.168    c0.104,0.019,0.206,0.041,0.311,0.056c0.343,0.048,0.689,0.079,1.033,0.079h0.001c0.345,0,0.69-0.031,1.034-0.079    c0.104-0.014,0.206-0.037,0.31-0.055c0.243-0.044,0.484-0.1,0.725-0.169c0.112-0.032,0.222-0.064,0.332-0.101    c0.25-0.085,0.495-0.185,0.738-0.297c0.081-0.038,0.165-0.068,0.245-0.108c0.02-0.01,0.041-0.017,0.061-0.027    c0.313-0.161,0.61-0.343,0.893-0.543c0.002-0.001,0.003-0.002,0.005-0.003l124.888-88.605l70.73,48.53    C447.366,403.322,437.497,415.312,426.405,426.404z M392.667,328.973v-23.869c0-4.145-3.361-7.506-7.506-7.506    s-7.506,3.361-7.506,7.506v23.944l-114.148,80.986V287.494l114.148-80.985v68.573c0,4.146,3.361,7.506,7.506,7.506    s7.506-3.36,7.506-7.506V191.98c0-0.329-0.025-0.655-0.068-0.977c-0.014-0.106-0.039-0.21-0.057-0.315    c-0.037-0.214-0.078-0.426-0.133-0.635c-0.032-0.12-0.072-0.237-0.109-0.354c-0.06-0.189-0.125-0.375-0.2-0.558    c-0.048-0.118-0.101-0.234-0.155-0.349c-0.083-0.177-0.174-0.35-0.271-0.52c-0.062-0.109-0.124-0.217-0.191-0.322    c-0.109-0.171-0.227-0.335-0.35-0.496c-0.071-0.094-0.139-0.189-0.215-0.28c-0.143-0.172-0.299-0.333-0.458-0.492    c-0.069-0.069-0.132-0.142-0.204-0.209c-0.236-0.218-0.484-0.424-0.75-0.612L263.507,96.466V15.14    c61.556,1.871,119.156,26.714,162.899,70.456C471.921,131.112,496.989,191.63,496.989,256c0,43.552-11.489,85.332-33.009,121.904    L392.667,328.973z"></path>	</g></g><g></g><g></g><g></g><g></g><g></g><g></g><g></g><g></g><g></g><g></g><g></g><g></g><g></g><g></g><g></g></svg>