<svg xmlns:xlink="http://www.w3.org/1999/xlink" xmlns="http://www.w3.org/2000/svg" class="style-svg entered lazyloaded replaced-svg svg-replaced-0" id="svg-replaced-0" viewBox="0 0 40 40" height="40px" width="40px"><title>Artboard</title><desc>Created with Sketch.</desc><defs></defs><g fill-rule="evenodd" fill="none" stroke-width="1" stroke="none" id="Page-1"><g fill-rule="nonzero" id="Artboard"><g transform="translate(0.000000, 2.000000)" id="medical-bag.2"><path fill="#D3D3D3" id="Shape" d="M25.3333333,7 L14.6666667,7 C14.2666667,7 14,6.73333333 14,6.33333333 L14,2.6 C14,1.26666667 15.0666667,0.2 16.4,0.2 L23.7333333,0.2 C25.0666667,0.2 26.1333333,1.26666667 26.1333333,2.6 L26.1333333,6.33333333 C26,6.73333333 25.7333333,7 25.3333333,7 Z M15.3333333,5.66666667 L24.6666667,5.66666667 L24.6666667,2.6 C24.6666667,2.06666667 24.2666667,1.53333333 23.6,1.53333333 L16.2666667,1.53333333 C15.7333333,1.53333333 15.2,1.93333333 15.2,2.6 L15.2,5.66666667 L15.3333333,5.66666667 Z"></path><path fill="#D3D3D3" id="Shape" d="M38.6666667,35 L1.33333333,35 C0.933333333,35 0.666666667,34.7333333 0.666666667,34.3333333 L0.666666667,6.33333333 C0.666666667,5.93333333 0.933333333,5.66666667 1.33333333,5.66666667 L38.6666667,5.66666667 C39.0666667,5.66666667 39.3333333,5.93333333 39.3333333,6.33333333 L39.3333333,34.3333333 C39.3333333,34.7333333 39.0666667,35 38.6666667,35 Z M2,33.6666667 L38,33.6666667 L38,7 L2,7 L2,33.6666667 Z"></path><path fill="#D3D3D3" id="Shape" d="M19.3333333,29.6666667 C14.1333333,29.6666667 10,25.5333333 10,20.3333333 C10,15.1333333 14.1333333,11 19.3333333,11 C24.5333333,11 28.6666667,15.1333333 28.6666667,20.3333333 C28.6666667,25.5333333 24.4,29.6666667 19.3333333,29.6666667 Z M19.3333333,12.3333333 C14.9333333,12.3333333 11.3333333,15.9333333 11.3333333,20.3333333 C11.3333333,24.7333333 14.9333333,28.3333333 19.3333333,28.3333333 C23.7333333,28.3333333 27.3333333,24.7333333 27.3333333,20.3333333 C27.3333333,15.9333333 23.7333333,12.3333333 19.3333333,12.3333333 Z"></path><path fill="#F56920" id="Shape" d="M21.3333333,27 L17.3333333,27 C16.9333333,27 16.6666667,26.7333333 16.6666667,26.3333333 L16.6666667,23 L13.3333333,23 C12.9333333,23 12.6666667,22.7333333 12.6666667,22.3333333 L12.6666667,18.3333333 C12.6666667,17.9333333 12.9333333,17.6666667 13.3333333,17.6666667 L16.6666667,17.6666667 L16.6666667,14.3333333 C16.6666667,13.9333333 16.9333333,13.6666667 17.3333333,13.6666667 L21.3333333,13.6666667 C21.7333333,13.6666667 22,13.9333333 22,14.3333333 L22,17.6666667 L25.3333333,17.6666667 C25.7333333,17.6666667 26,17.9333333 26,18.3333333 L26,22.3333333 C26,22.7333333 25.7333333,23 25.3333333,23 L22,23 L22,26.3333333 C22,26.7333333 21.7333333,27 21.3333333,27 Z M18,25.6666667 L20.6666667,25.6666667 L20.6666667,22.3333333 C20.6666667,21.9333333 20.9333333,21.6666667 21.3333333,21.6666667 L24.6666667,21.6666667 L24.6666667,19 L21.3333333,19 C20.9333333,19 20.6666667,18.7333333 20.6666667,18.3333333 L20.6666667,15 L18,15 L18,18.3333333 C18,18.7333333 17.7333333,19 17.3333333,19 L14,19 L14,21.6666667 L17.3333333,21.6666667 C17.7333333,21.6666667 18,21.9333333 18,22.3333333 L18,25.6666667 Z"></path></g></g></g></svg>