<svg xmlns:xlink="http://www.w3.org/1999/xlink" xmlns="http://www.w3.org/2000/svg" class="style-svg entered lazyloaded replaced-svg svg-replaced-3" id="svg-replaced-3" viewBox="0 0 40 40" height="40px" width="40px"><title>Artboard</title><desc>Created with Sketch.</desc><defs></defs><g fill-rule="evenodd" fill="none" stroke-width="1" stroke="none" id="Page-1"><g fill-rule="nonzero" id="Artboard"><g transform="translate(0.000000, 3.000000)" id="heart-beat.2"><path fill="#F56920" id="Shape" d="M20,26.6666667 C19.7333333,26.6666667 19.4666667,26.5333333 19.3333333,26.2666667 L13.0666667,10 L7.06666667,17.0666667 C7.06666667,17.2 6.8,17.3333333 6.66666667,17.3333333 L1.33333333,17.3333333 C0.933333333,17.3333333 0.666666667,17.0666667 0.666666667,16.6666667 C0.666666667,16.2666667 0.933333333,16 1.33333333,16 L6.4,16 L12.9333333,8.26666667 C12.9333333,8 13.2,8 13.4666667,8 C13.7333333,8 13.8666667,8.13333333 14,8.4 L19.7333333,23.4666667 L20.6666667,17.8666667 C20.6666667,17.6 20.9333333,17.3333333 21.3333333,17.3333333 L22.2666667,17.3333333 L26.1333333,8.4 C26.1333333,8.13333333 26.4,8 26.6666667,8 C26.9333333,8 27.2,8.13333333 27.3333333,8.4 L33.3333333,23.8666667 L35.4666667,16.4 C35.6,16.1333333 35.8666667,15.8666667 36.1333333,15.8666667 L38.8,15.8666667 C39.2,15.8666667 39.4666667,16.1333333 39.4666667,16.5333333 C39.4666667,16.9333333 39.0666667,17.3333333 38.6666667,17.3333333 L36.5333333,17.3333333 L34,26.1333333 C33.8666667,26.4 33.6,26.6666667 33.3333333,26.6666667 C33.0666667,26.6666667 32.8,26.5333333 32.6666667,26.2666667 L26.6666667,10.4 L23.3333333,18.2666667 C23.2,18.5333333 22.9333333,18.6666667 22.6666667,18.6666667 L21.8666667,18.6666667 L20.6666667,26.1333333 C20.6666667,26.4 20.4,26.6666667 20,26.6666667 L20,26.6666667 Z"></path><g fill="#D3D3D3" id="Group"><path id="Shape" d="M37.3333333,14.6666667 C37.2,14.6666667 37.0666667,14.6666667 37.0666667,14.5333333 C36.8,14.4 36.6666667,14 36.8,13.6 C37.3333333,12.4 38,10.6666667 38,9.2 C38,4.66666667 34.1333333,1.2 29.3333333,1.2 C24.6666667,1.2 20.6666667,5.2 20.6666667,9.86666667 C20.6666667,10.2666667 20.4,10.5333333 20,10.5333333 C19.6,10.5333333 19.3333333,10.2666667 19.3333333,9.86666667 C19.3333333,5.33333333 15.3333333,1.33333333 10.6666667,1.33333333 C5.86666667,1.33333333 2,4.8 2,9.33333333 C2,10.8 2,12 2.53333333,13.0666667 C2.66666667,13.3333333 2.53333333,13.7333333 2.26666667,14 C2,14.1333333 1.6,14 1.33333333,13.7333333 C0.666666667,12.1333333 0.666666667,10.8 0.666666667,9.33333333 C0.666666667,4.13333333 5.06666667,0 10.6666667,0 C14.8,0 18.5333333,2.8 20,6.53333333 C21.4666667,2.66666667 25.2,0 29.3333333,0 C34.9333333,0 39.3333333,4.13333333 39.3333333,9.33333333 C39.3333333,10.9333333 38.6666667,12.9333333 37.8666667,14.2666667 C37.8666667,14.5333333 37.6,14.6666667 37.3333333,14.6666667 Z"></path><path id="Shape" d="M20,34.6666667 C19.8666667,34.6666667 19.6,34.5333333 19.4666667,34.4 L7.46666667,21.0666667 C7.2,20.8 7.2,20.4 7.46666667,20.1333333 C7.73333333,19.8666667 8.13333333,19.8666667 8.4,20.1333333 L19.8666667,32.9333333 L28.6666667,22.8 C28.9333333,22.5333333 29.3333333,22.5333333 29.6,22.8 C29.8666667,23.0666667 29.8666667,23.4666667 29.6,23.7333333 L20.2666667,34.4 C20.4,34.5333333 20.1333333,34.6666667 20,34.6666667 Z"></path></g></g></g></g></svg>