<?xml version="1.0" encoding="UTF-8"?>
<svg xmlns="http://www.w3.org/2000/svg" xmlns:xlink="http://www.w3.org/1999/xlink" width="167px" height="54px" viewBox="0 0 167 54" version="1.1">
  <path d="M4.21884749e-15,43.4619229 L3.39476771,43.4619229 C5.34955577,43.4619229 7.11828225,44.1588089 7.11828225,46.4376259 C7.11828225,49.0213306 5.22113903,49.4859212 3.08143087,49.4859212 L1.79783428,49.4859212 L1.79783428,53.7386678 L4.21884749e-15,53.7386678 L4.21884749e-15,43.4619229 Z M2.88167151,47.9185086 C3.90900538,47.9185086 5.23540756,47.859854 5.23540756,46.4666629 C5.23540756,45.2041378 4.05169064,45.0293356 3.08143087,45.0293356 L1.79783428,45.0293356 L1.79783428,47.9185086 L2.88167151,47.9185086 Z M12.7146835,43.461981 L14.5119471,43.461981 L14.5119471,47.5556052 L19.2336877,47.5556052 L19.2336877,43.461981 L21.0309512,43.461981 L21.0309512,53.7387258 L19.2336877,53.7387258 L19.2336877,49.2095479 L14.5119471,49.2095479 L14.5119471,53.7387258 L12.7146835,53.7387258 L12.7146835,43.461981 Z M30.1016815,49.3408528 L26.307395,43.4620391 L28.5612514,43.4620391 L31.0428335,47.5556633 L33.5535233,43.4620391 L35.6932314,43.4620391 L31.8983743,49.3408528 L31.8983743,53.7387839 L30.1016815,53.7387839 L30.1016815,49.3408528 Z M45.5467901,45.6686704 C45.1615399,45.116969 44.4766507,44.8556368 43.7774929,44.8556368 C42.9504891,44.8556368 42.1229146,45.2331166 42.1229146,46.1762356 C42.1229146,48.2378566 46.9159979,47.0618615 46.9159979,50.7193513 C46.9159979,52.9255761 45.2043455,53.9999419 43.2215911,53.9999419 C41.9665316,53.9999419 40.7394384,53.6079436 39.9118638,52.60617 L41.2673738,51.2710527 C41.7091274,51.9534202 42.46593,52.3454185 43.2643967,52.3454185 C44.0914005,52.3454185 45.0336939,51.8808279 45.0336939,50.9371282 C45.0336939,48.687348 40.2400399,49.9794907 40.2400399,46.3074825 C40.2400399,44.1877877 42.0943776,43.2011134 43.9635545,43.2011134 C45.0188547,43.2011134 46.0747256,43.5054202 46.8594945,44.26038 L45.5467901,45.6686704 Z M52.8769885,53.738842 L52.8769885,43.4620971 L54.6742521,43.4620971 L54.6742521,53.738842 L52.8769885,53.738842 Z M65.8790972,43.2011714 C69.0318707,43.1425169 71.2566193,45.2912485 71.2566193,48.5857769 C71.2566193,51.7937752 69.0318707,53.9419262 65.8790972,54 C62.7691293,54 60.54381,51.8518491 60.54381,48.6438507 C60.54381,45.3493224 62.7691293,43.2011714 65.8790972,43.2011714 Z M65.8933658,52.3454766 C67.9902683,52.3454766 69.3743154,50.7194094 69.3743154,48.5282838 C69.3743154,46.4811813 67.9902683,44.8556948 65.8933658,44.8556948 C63.8107317,44.8556948 62.4272554,46.4811813 62.4272554,48.5282838 C62.4272554,50.7194094 63.8107317,52.3454766 65.8933658,52.3454766 Z M79.0511155,45.1168528 L75.9554161,45.1168528 L75.9554161,43.4617487 L83.9440785,43.4617487 L83.9440785,45.1168528 L80.8483791,45.1168528 L80.8483791,53.7390743 L79.0511155,53.7390743 L79.0511155,45.1168528 Z M89.3589841,43.461981 L91.1562476,43.461981 L91.1562476,47.5556052 L95.8779882,47.5556052 L95.8779882,43.461981 L97.6752518,43.461981 L97.6752518,53.7387258 L95.8779882,53.7387258 L95.8779882,49.2095479 L91.1562476,49.2095479 L91.1562476,53.7387258 L89.3589841,53.7387258 L89.3589841,43.461981 Z M104.124112,43.461981 L110.814338,43.461981 L110.814338,45.1170851 L105.921375,45.1170851 L105.921375,47.6421352 L110.557505,47.6421352 L110.557505,49.2972394 L105.921375,49.2972394 L105.921375,52.0842024 L111.071172,52.0842024 L111.071172,53.7387258 L104.124112,53.7387258 L104.124112,43.461981 Z M117.046431,43.4620391 L120.555918,43.4620391 C122.495866,43.4620391 124.321667,44.1008512 124.321667,46.4087052 C124.321667,47.8890071 123.480395,48.9778914 121.982199,49.1956682 L124.664112,53.7387839 L122.495866,53.7387839 L120.156399,49.3844082 L118.844265,49.3844082 L118.844265,53.7387839 L117.046431,53.7387839 L117.046431,43.4620391 Z M120.24201,47.8164148 C121.254505,47.8164148 122.438792,47.7298848 122.438792,46.3941867 C122.438792,45.1746363 121.325847,45.0294517 120.398393,45.0294517 L118.844265,45.0294517 L118.844265,47.8164148 L120.24201,47.8164148 Z M133.991048,43.4621552 L135.546317,43.4621552 L139.897076,53.7389001 L137.842408,53.7389001 L136.901256,51.3874907 L132.52196,51.3874907 L131.608774,53.7389001 L129.597483,53.7389001 L133.991048,43.4621552 Z M136.273441,49.8194973 L134.718172,45.6393431 L133.134936,49.8194973 L136.273441,49.8194973 Z M145.270888,43.4619229 L148.665656,43.4619229 C150.620444,43.4619229 152.38917,44.1588089 152.38917,46.4376259 C152.38917,49.0213306 150.492027,49.4859212 148.352319,49.4859212 L147.068722,49.4859212 L147.068722,53.7386678 L145.270888,53.7386678 L145.270888,43.4619229 Z M148.15256,47.9185086 C149.179893,47.9185086 150.506296,47.859854 150.506296,46.4666629 C150.506296,45.2041378 149.322579,45.0293356 148.352319,45.0293356 L147.068722,45.0293356 L147.068722,47.9185086 L148.15256,47.9185086 Z M160.562296,49.3408528 L156.76801,43.4620391 L159.021295,43.4620391 L161.503448,47.5556633 L164.014138,43.4620391 L166.153846,43.4620391 L162.358989,49.3408528 L162.358989,53.7387839 L160.562296,53.7387839 L160.562296,49.3408528 Z" id="moti-byline" fill="#626366"></path>
  <path d="M-1.83186799e-15,33.1768684 L-1.83186799e-15,20.9743982 L7.17191898,20.9743982 L7.17191898,33.1750929 C7.17191898,34.1610913 6.82014496,35.0044573 6.11778333,35.7057827 C5.41601491,36.4076999 4.5718759,36.7586585 3.58595949,36.7586585 C2.59944987,36.7586585 1.75471765,36.4076999 1.05294923,35.7057827 C0.350587603,35.0044573 -1.83186799e-15,34.1616831 -1.83186799e-15,33.1768684 Z M34.0661406,33.1670439 L34.0661406,20.9740431 L41.2386528,20.9740431 L41.2386528,33.1771051 C41.2386528,34.1619198 40.8868788,35.0041022 40.1845171,35.7060194 C39.4827487,36.4079366 38.6386097,36.7583034 37.6526933,36.7583034 C36.6661837,36.7583034 35.8214514,36.406753 35.119683,35.7030602 C34.4173214,35.0005511 34.0661406,34.1548178 34.0661406,33.1670439 Z M76.2611679,26.8302582 C78.5450296,25.2370363 79.9396683,23.2839782 80.4545753,20.9740431 L87.7297129,20.9740431 C87.217772,25.292077 85.0952636,28.9442956 81.3562557,31.9283316 C77.2915751,35.1485101 72.5856336,36.7583034 67.2366515,36.7583034 C61.8574156,36.7583034 57.1508809,35.1485101 53.116454,31.9283316 C49.3768529,28.9442956 47.2555309,25.292077 46.7429968,20.9740431 L54.0175412,20.9740431 C54.5324482,23.2839782 55.9276801,25.2370363 58.2121351,26.8302582 C60.8620078,28.6791532 63.87018,29.6036007 67.2366515,29.6036007 C70.6019365,29.6036007 73.6101087,28.6791532 76.2611679,26.8302582 Z M106.448303,33.180952 L106.448303,20.9743391 L113.620815,20.9743391 L113.620815,33.180952 C113.620815,34.1645831 113.269041,35.0073573 112.566679,35.7080908 C111.864911,36.4076407 111.020772,36.7585993 110.034856,36.7585993 C109.048346,36.7585993 108.203614,36.4076407 107.501845,35.7080908 C106.799484,35.0073573 106.448303,34.1645831 106.448303,33.180952 Z M147.327707,20.9743391 L154.500219,20.9743391 L154.500219,29.6033047 L162.567887,29.6033047 C163.554396,29.6033047 164.397942,29.9542634 165.100897,30.6538133 C165.803259,31.3551387 166.153846,32.197321 166.153846,33.180952 C166.153846,34.1645831 165.803259,35.0073573 165.100897,35.7080908 C164.397942,36.4076407 163.554396,36.7585993 162.567887,36.7585993 L139.259447,36.7585993 C138.27353,36.7585993 137.428798,36.4076407 136.72703,35.7080908 C136.024075,35.0073573 135.673487,34.1645831 135.673487,33.180952 C135.673487,32.197321 136.024075,31.3551387 136.72703,30.6538133 C137.428798,29.9542634 138.27353,29.6033047 139.259447,29.6033047 L147.327707,29.6033047 L147.327707,20.9743391 Z" id="moti-bottom" fill="#92C295"></path>
  <path d="M58.1223349,10.7037518 C55.8313612,12.3490671 54.4521499,14.3542392 53.978769,16.7168809 L46.7167028,16.7168809 C47.1871176,12.2774539 49.3197045,8.52849821 53.1168362,5.47299791 C57.1803188,2.22652885 61.8868401,0.602697537 67.2364001,0.602697537 C72.5853669,0.602697537 77.291295,2.22652885 81.355964,5.47299791 C85.1519093,8.52849821 87.2850894,12.2774539 87.7555042,16.7168809 L80.4969972,16.7168809 C80.0188706,14.3017228 78.6088125,12.2661151 76.2608907,10.6142352 C73.6098391,8.75049941 70.6016756,7.81773633 67.2364001,7.81773633 C63.840871,7.81773633 60.803047,8.78033828 58.1223349,10.7037518 Z M113.620372,7.81773633 L113.620372,16.7168809 L106.44788,16.7168809 L106.44788,7.81773633 L93.0010154,7.81773633 C92.0145086,7.81773633 91.1697788,7.46444411 90.4686056,6.75845644 C89.7656527,6.05187199 89.4150661,5.20206097 89.4150661,4.21021693 C89.4150661,3.21837289 89.7656527,2.36915865 90.4686056,1.6625742 C91.1697788,0.956586536 92.0145086,0.602697537 93.0010154,0.602697537 L127.06783,0.602697537 C128.053743,0.602697537 128.89788,0.956586536 129.599646,1.6625742 C130.302006,2.36915865 130.653779,3.21837289 130.653779,4.21021693 C130.653779,5.20206097 130.302006,6.05187199 129.599646,6.75845644 C128.89788,7.46444411 128.053743,7.81773633 127.06783,7.81773633 L113.620372,7.81773633 Z M154.499659,7.81773633 L154.499659,16.7168809 L147.327168,16.7168809 L147.327168,7.81773633 L139.259523,7.81773633 C138.273017,7.81773633 137.428287,7.46444411 136.72652,6.75845644 C136.023568,6.05187199 135.673574,5.20206097 135.673574,4.21021693 C135.673574,3.21837289 136.023568,2.36915865 136.72652,1.6625742 C137.428287,0.956586536 138.273017,0.602697537 139.259523,0.602697537 L162.567897,0.602697537 C163.554404,0.602697537 164.397947,0.956586536 165.100307,1.6625742 C165.802666,2.36915865 166.153846,3.21837289 166.153846,4.21021693 C166.153846,5.20206097 165.802666,6.05187199 165.100307,6.75845644 C164.397947,7.46444411 163.554404,7.81773633 162.567897,7.81773633 L154.499659,7.81773633 Z M40.1400896,1.64132893 C40.8715165,2.33418749 41.238713,3.17624041 41.238713,4.169278 L41.238713,16.7171197 L34.0662213,16.7171197 L34.0662213,11.9154487 L28.3874302,16.7171197 L23.6026052,20.7620769 L23.0307516,21.2460634 C22.2821217,21.8846152 21.4723912,22.2026975 20.603933,22.2026975 C19.7354749,22.2026975 18.9257444,21.8953572 18.1777077,21.2812732 L17.563143,20.7620769 L12.7795045,16.7171197 L7.1718985,11.9745296 L7.1718985,16.7171197 L-1.83186799e-15,16.7171197 L-1.83186799e-15,4.169278 C-1.83186799e-15,3.20667605 0.36541683,2.37178447 1.09803012,1.66400647 C1.8300502,0.956825247 2.6741868,0.602936248 3.63043993,0.602936248 C4.49711849,0.602936248 5.28905269,0.903712058 6.00624254,1.5046669 L20.6181701,13.8615398 L35.2318772,1.5046669 C35.9490671,0.903712058 36.7113408,0.602936248 37.517512,0.602936248 C38.5330861,0.602936248 39.4074763,0.949663918 40.1400896,1.64132893 Z" id="moti-top" fill="#34773A"></path>
</svg>
