<svg xmlns="http://www.w3.org/2000/svg" id="Group_2433" data-name="Group 2433" width="22.999" height="23" viewBox="0 0 22.999 23"><path id="Path_3382" data-name="Path 3382" d="M22.418,16.964,19.559,14.1a2.024,2.024,0,0,0-2.859,0l-1.3,1.3a1.534,1.534,0,0,1-2.166,0L7.6,9.767A1.531,1.531,0,0,1,7.6,7.6L8.9,6.3a2.021,2.021,0,0,0,0-2.86L6.042.591a2.023,2.023,0,0,0-2.857,0L2.143,1.622a7.3,7.3,0,0,0,0,10.31l8.926,8.93a7.286,7.286,0,0,0,10.311,0l1.04-1.04A2.024,2.024,0,0,0,22.418,16.964ZM4.135,1.544a.675.675,0,0,1,.954,0L7.948,4.395a.674.674,0,0,1,0,.953l-.477.477-3.81-3.81ZM12.021,19.91,3.1,10.98a5.925,5.925,0,0,1-.372-8l3.8,3.8a2.877,2.877,0,0,0,.125,3.938l5.633,5.638h0a2.877,2.877,0,0,0,3.938.125l3.8,3.8A5.914,5.914,0,0,1,12.021,19.91Zm9.444-1.04-.477.477-3.812-3.812.476-.477a.675.675,0,0,1,.953,0l2.859,2.859A.675.675,0,0,1,21.465,18.87Z" transform="translate(-0.011 0)"></path></svg>