<svg xmlns="http://www.w3.org/2000/svg" xmlns:xlink="http://www.w3.org/1999/xlink" width="40px" height="40px" viewBox="0 0 40 40"><title>Artboard</title><desc>Created with Sketch.</desc><defs></defs><g id="Page-1" stroke="none" stroke-width="1" fill="none" fill-rule="evenodd"><g id="Artboard"><g id="worker" transform="translate(3.000000, 0.000000)"><path d="M32.3164,27.4336 C31.9694,27.9976 28.9084,32.9826 28.0794,34.1526 C27.6684,34.7366 27.2244,35.0576 26.8314,35.0576 C26.6964,35.0576 26.5634,35.0226 26.4354,34.9546 C26.2114,34.8316 25.7294,34.4646 26.1224,33.6806 C26.4094,33.1056 27.3694,31.2446 28.9744,28.1466 L29.2554,27.6066 L27.5804,24.9556 L27.0884,25.8266 C26.9704,26.0356 25.9154,27.8726 24.5934,29.7376 C22.2314,33.0716 21.0084,33.7386 20.4894,33.8386 C20.3594,33.8646 20.2164,33.8776 20.0664,33.8776 C19.0884,33.8776 17.9104,33.3176 16.6094,32.4516 C16.4044,32.3146 16.1974,32.1716 15.9864,32.0206 C14.6954,31.0956 13.3014,29.9206 11.8694,28.7126 L11.7444,28.6076 C11.6714,28.5456 11.5974,28.4846 11.5244,28.4226 C11.4934,28.3956 11.4614,28.3686 11.4284,28.3416 C11.1974,28.1466 10.9664,27.9516 10.7324,27.7556 L10.4694,27.5366 L10.0544,27.6856 C8.5854,28.2116 5.0334,29.4896 3.7794,29.9676 C3.4824,30.0796 3.2004,30.1366 2.9414,30.1366 C2.1024,30.1366 1.6934,29.5516 1.5564,29.2996 C1.4274,29.0626 1.4084,28.7226 1.5064,28.3916 C1.6044,28.0586 1.8044,27.7836 2.0414,27.6556 C2.6964,27.2966 8.6184,24.2526 10.6414,23.2146 L10.7004,23.1846 L10.7584,23.2166 L18.9174,27.7006 L23.2034,21.3166 L17.2984,19.4186 L17.2754,19.3916 C16.4604,18.4466 13.7674,15.3316 13.3734,14.9366 C13.1894,14.7516 12.9344,14.1016 13.3944,13.5916 C13.6304,13.3296 13.9174,13.2736 14.1164,13.2736 C14.4254,13.2736 14.7504,13.4056 15.0054,13.6356 C15.7404,14.2976 19.6814,17.5216 19.7204,17.5536 L19.8384,17.6516 L19.9894,17.6796 C22.3964,18.1216 26.1054,18.8596 26.8254,19.0026 L26.8664,19.0116 L26.8934,19.0416 C29.9484,22.4426 31.8214,26.2346 32.3234,27.3156 L32.3514,27.3756 L32.3164,27.4336 Z M9.3274,37.9256 C8.9024,38.3986 8.4034,38.6806 7.9914,38.6806 C7.7424,38.6806 7.5074,38.5816 7.2744,38.3796 C6.6264,37.8186 6.8034,37.2496 7.3864,36.3336 C7.7814,35.7126 10.6854,31.7756 11.6744,30.4366 L11.7704,30.5176 C12.6454,31.2516 13.4894,31.9476 14.3034,32.5716 C14.3374,32.5976 14.3704,32.6216 14.4034,32.6476 C13.3104,33.7746 9.8714,37.3226 9.3274,37.9256 L9.3274,37.9256 Z M33.8054,27.0886 C33.7214,26.8896 31.7054,22.1626 27.8014,17.8916 L27.6144,17.6876 L27.1514,17.5946 C23.6104,16.8916 21.5644,16.5016 20.4664,16.2976 C19.7664,15.7246 16.5894,13.1176 15.9714,12.5616 C15.4464,12.0896 14.7874,11.8296 14.1164,11.8296 C13.4214,11.8296 12.7844,12.1116 12.3214,12.6236 C11.3864,13.6616 11.5814,15.1846 12.3504,15.9566 C12.6244,16.2306 14.5984,18.4986 16.3164,20.4886 L16.4714,20.6696 L20.9334,22.1036 L18.4554,25.7976 L10.7814,21.5806 L10.7234,21.5486 L10.3234,21.7546 C10.2444,21.7956 2.1584,25.9466 1.3494,26.3866 C0.7744,26.7006 0.3264,27.2826 0.1204,27.9836 C-0.0866,28.6846 -0.0246,29.4166 0.2894,29.9916 C0.8314,30.9866 1.8224,31.5806 2.9414,31.5806 C3.3764,31.5806 3.8304,31.4926 4.2944,31.3176 C5.1254,30.9996 7.2124,30.2406 10.1774,29.1756 C10.3074,29.2856 10.4374,29.3946 10.5674,29.5046 C9.1354,31.4436 6.5634,34.9366 6.1674,35.5596 C5.7444,36.2246 4.6214,37.9916 6.3274,39.4706 C6.8284,39.9046 7.3884,40.1246 7.9914,40.1246 C9.1234,40.1246 9.9874,39.3526 10.4004,38.8926 C10.9204,38.3136 14.3724,34.7536 15.5864,33.5036 C17.2014,34.6086 18.6934,35.3226 20.0664,35.3226 C20.3044,35.3226 20.5404,35.2996 20.7654,35.2566 C22.0844,34.9996 23.7214,33.4676 25.7724,30.5726 C26.3074,29.8176 26.7944,29.0776 27.1914,28.4496 C26.3844,30.0046 25.1684,32.3566 24.8304,33.0366 C24.1004,34.4936 24.7954,35.7096 25.7504,36.2246 C26.0904,36.4086 26.4544,36.5016 26.8314,36.5016 C27.4494,36.5016 28.3734,36.2396 29.2584,34.9866 C30.1284,33.7586 33.1454,28.8466 33.7494,27.8626 L33.9764,27.4896 L33.8054,27.0886 Z M26.8154,10.7896 C28.1294,10.7896 29.1984,11.8596 29.1984,13.1736 C29.1984,14.4876 28.1294,15.5566 26.8154,15.5566 C25.5014,15.5566 24.4314,14.4876 24.4314,13.1736 C24.4314,11.8596 25.5014,10.7896 26.8154,10.7896 M26.8154,17.0016 C28.9284,17.0016 30.6424,15.2876 30.6424,13.1736 C30.6424,11.0596 28.9284,9.3456 26.8154,9.3456 C24.7004,9.3456 22.9874,11.0596 22.9874,13.1736 C22.9874,15.2876 24.7004,17.0016 26.8154,17.0016" id="Shape" fill="#D3D3D3"></path><path d="M18.874,8.8687 L16.892,1.8567 L14.589,4.8757 L12.831,0.2527 L10.818,4.1657 L5.884,-0.0003 L7.213,5.9417 L2.319,4.9227 L5.438,9.6687 L0.707,10.0397 L4.009,13.7127 L1.603,14.8107 L7.283,18.0447 C7.395,18.1087 7.518,18.1397 7.64,18.1397 C7.891,18.1397 8.134,18.0087 8.268,17.7737 C8.465,17.4277 8.344,16.9867 7.998,16.7887 L4.77,14.9517 L6.398,14.2097 L3.738,11.2507 L7.988,10.9187 L5.445,7.0497 L9.112,7.8127 L8.23,3.8717 L11.272,6.4407 L12.633,3.7957 L14.162,7.8167 L16.289,5.0297 L17.486,9.2617 C17.593,9.6457 17.992,9.8687 18.376,9.7607 C18.76,9.6517 18.982,9.2527 18.874,8.8687" id="Shape" fill="#F56920"></path></g></g></g></svg>