<svg xmlns="http://www.w3.org/2000/svg" xmlns:xlink="http://www.w3.org/1999/xlink" width="40px" height="29px" viewBox="0 0 40 29"><desc>Created with Sketch.</desc><defs></defs><g id="Page-1" stroke="none" stroke-width="1" fill="none" fill-rule="evenodd"><g id="Artboard" transform="translate(0.000000, -6.000000)"><g id="baseball-cap.2" transform="translate(0.000000, 6.000000)"><path d="M12.0683538,2.38139985 C10.8779667,2.77838501 9.15940123,3.57229819 7.96946799,5.81994987 C6.29795092,8.90582755 6.37626601,13.4915614 8.08291525,19.2126572 C13.2366182,16.9207032 23.7214658,14.3675206 28.9422992,14.0530908 L26.4874903,5.95222146 C26.0906756,4.76177717 25.1647744,3.70360447 23.9743301,3.17451811 C22.5193427,2.51316017 20.1384541,1.85180223 17.3607507,1.85180223 C15.5434968,1.85180223 13.7418472,2.03905401 12.0683538,2.38139985 Z M7.69716346,3.77021666 C6.44013631,4.35056122 5.39646551,5.0429987 4.66267829,5.81994987 C2.67860447,7.93629528 1.48816017,10.581727 1.48816017,14.4176031 C1.48816017,17.1953064 2.01724653,19.4439234 2.14951811,20.5020962 L5.72085099,20.5020962 C5.73153354,20.5020962 5.74307882,20.5029589 5.75534751,20.5046147 C6.03527481,20.2851917 6.396328,20.0575587 6.82633626,19.8245873 C4.9276099,13.4787122 4.95404147,8.54784463 6.7790237,5.15859193 C7.04475867,4.66033886 7.35220179,4.1954523 7.69716346,3.77021666 Z M11.0099261,1.39079667 C11.2262492,1.31380567 11.4474049,1.24686118 11.6730725,1.19044429 C11.8010971,1.14776941 11.9153535,1.14639922 12.0158417,1.17300754 C13.7133734,0.8408279 15.5232567,0.66135794 17.3607507,0.66135794 C20.4029973,0.66135794 22.9161574,1.45498747 24.5034165,2.11634541 C26.0906756,2.77770335 27.2811198,4.10041923 27.8102062,5.68767829 L30.455638,14.1530599 L38.1273901,19.3116519 L38.2596617,19.4439234 C39.3178344,19.9730098 39.9791923,20.8989109 39.9791923,22.48617 C39.9791923,23.5443427 38.9210196,27.1156756 36.6724026,27.1156756 C34.952872,27.1156756 31.5138107,23.8088859 30.455638,22.7507131 C29.6620084,23.1475279 28.8683789,23.6766143 28.0747494,24.2057006 C24.7679597,26.1897744 21.3288984,28.4383914 17.2284792,28.4383914 C11.6730725,28.4383914 6.51448052,23.0152563 5.45630782,21.824812 L1.62043176,21.824812 C1.35588859,21.824812 1.09134541,21.5602689 0.959073821,21.2957257 C0.959073821,21.1634541 0.165444293,18.1212076 0.165444293,14.5498747 C0.165444293,10.3171839 1.223617,7.40720893 3.60450558,5.02632035 C5.22409034,3.40673559 7.88479343,2.13419028 11.0099261,1.39079667 Z M29.7910689,15.3442157 C24.0841863,15.4033591 10.2833343,19.1362732 6.87582029,21.4317613 C8.47554475,23.0603135 12.8942553,27.1156756 17.2284792,27.1156756 C20.799812,27.1156756 24.1066017,24.9993301 27.2811198,23.0152563 C30.0588232,21.2957257 32.704255,19.576195 35.4819583,19.1793803 L29.7910689,15.3442157 Z M31.5138107,21.9570836 C33.3656129,23.8088859 35.7465015,25.7929597 36.540131,25.7929597 C37.7305753,25.7929597 38.5242048,23.2797995 38.5242048,22.48617 C38.5242048,21.0311825 37.9951185,20.5020962 36.540131,20.5020962 C34.8206004,20.5020962 33.2333413,21.1634541 31.5138107,21.9570836 Z" id="Shape" fill="#D3D3D3" fill-rule="nonzero"></path><path d="M19.8681641,12.9208984 L18.7207031,8.36035156 L18.7207031,13.3017578 C18.7207031,13.5751967 18.6596686,13.7802728 18.5375977,13.9169922 C18.4155267,14.0537116 18.2535817,14.1220703 18.0517578,14.1220703 C17.8564443,14.1220703 17.6969407,14.0545254 17.5732422,13.9194336 C17.4495437,13.7843418 17.3876953,13.5784519 17.3876953,13.3017578 L17.3876953,7.63769531 C17.3876953,7.32519375 17.4690747,7.11442112 17.6318359,7.00537109 C17.7945972,6.89632107 18.0143215,6.84179688 18.2910156,6.84179688 L18.7402344,6.84179688 C19.010418,6.84179688 19.2065424,6.86621069 19.3286133,6.91503906 C19.4506842,6.96386743 19.5410153,7.05175718 19.5996094,7.17871094 C19.6582034,7.3056647 19.7249345,7.51236836 19.7998047,7.79882812 L20.8398438,11.7197266 L21.8798828,7.79882812 C21.954753,7.51236836 22.0214841,7.3056647 22.0800781,7.17871094 C22.1386722,7.05175718 22.2290033,6.96386743 22.3510742,6.91503906 C22.4731451,6.86621069 22.6692695,6.84179688 22.9394531,6.84179688 L23.3886719,6.84179688 C23.665366,6.84179688 23.8850903,6.89632107 24.0478516,7.00537109 C24.2106128,7.11442112 24.2919922,7.32519375 24.2919922,7.63769531 L24.2919922,13.3017578 C24.2919922,13.5751967 24.2309576,13.7802728 24.1088867,13.9169922 C23.9868158,14.0537116 23.8232432,14.1220703 23.6181641,14.1220703 C23.4261058,14.1220703 23.2682298,14.0537116 23.1445312,13.9169922 C23.0208327,13.7802728 22.9589844,13.5751967 22.9589844,13.3017578 L22.9589844,8.36035156 L21.8115234,12.9208984 C21.7366533,13.2171239 21.6756187,13.4344069 21.628418,13.5727539 C21.5812172,13.711101 21.4941413,13.837239 21.3671875,13.9511719 C21.2402337,14.0651047 21.0644542,14.1220703 20.8398438,14.1220703 C20.6705721,14.1220703 20.5273443,14.0854496 20.4101562,14.012207 C20.2929682,13.9389645 20.2018232,13.8453782 20.1367188,13.7314453 C20.0716143,13.6175125 20.0203452,13.4913744 19.9829102,13.3530273 C19.9454751,13.2146803 19.9072268,13.0706388 19.8681641,12.9208984 Z" id="Shape" fill="#F56920" transform="translate(20.839844, 10.481934) rotate(-9.000000) translate(-20.839844, -10.481934) "></path></g></g></g></svg>