<svg xmlns="http://www.w3.org/2000/svg" xmlns:xlink="http://www.w3.org/1999/xlink" width="40px" height="40px" viewBox="0 0 40 40"><title>Artboard</title><desc>Created with Sketch.</desc><defs></defs><g id="Page-1" stroke="none" stroke-width="1" fill="none" fill-rule="evenodd"><g id="Artboard" fill-rule="nonzero"><g id="golf-ball.2" transform="translate(6.000000, 0.000000)"><path d="M14.6666667,40 C14.4,40 14.1333333,39.7333333 14,39.4666667 L12.6666667,34.2666667 L10,30.4 C9.86666667,30.1333333 9.86666667,29.8666667 10,29.6 C10.1333333,29.3333333 10.4,29.3333333 10.6666667,29.3333333 L10.9333333,29.4666667 C12.1333333,29.7333333 13.2,30 14.4,30 C15.6,30 16.6666667,29.7333333 17.8666667,29.4666667 L18.1333333,29.3333333 C18.4,29.2 18.6666667,29.3333333 18.8,29.6 C18.9333333,29.8666667 18.9333333,30.1333333 18.8,30.4 L16.1333333,34.2666667 L14.8,39.4666667 C15.2,39.7333333 14.9333333,40 14.6666667,40 Z M12.1333333,31.0666667 L13.8666667,33.6 C13.8666667,33.6 14,33.7333333 14,33.8666667 L14.6666667,36.6666667 L15.3333333,33.8666667 C15.3333333,33.7333333 15.3333333,33.7333333 15.4666667,33.6 L17.2,31.0666667 C15.6,31.3333333 13.7333333,31.3333333 12.1333333,31.0666667 Z" id="Shape" fill="#D3D3D3"></path><path d="M14.6666667,22.6666667 C14.2666667,22.6666667 14,22.4 14,22 C14,21.6 14.2666667,21.3333333 14.6666667,21.3333333 L14.6666667,21.3333333 C15.0666667,21.3333333 15.3333333,21.6 15.3333333,22 C15.3333333,22.4 15.0666667,22.6666667 14.6666667,22.6666667 Z" id="Shape" fill="#F56920"></path><path d="M20,21.3333333 C19.6,21.3333333 19.3333333,21.0666667 19.3333333,20.6666667 C19.3333333,20.2666667 19.6,20 20,20 L20,20 C20.4,20 20.6666667,20.2666667 20.6666667,20.6666667 C20.6666667,21.0666667 20.4,21.3333333 20,21.3333333 Z" id="Shape" fill="#F56920"></path><path d="M22.6666667,18.6666667 C22.2666667,18.6666667 22,18.4 22,18 C22,17.6 22.2666667,17.3333333 22.6666667,17.3333333 L22.6666667,17.3333333 C23.0666667,17.3333333 23.3333333,17.6 23.3333333,18 C23.3333333,18.4 23.0666667,18.6666667 22.6666667,18.6666667 Z" id="Shape" fill="#F56920"></path><path d="M14.6666667,17.3333333 C14.2666667,17.3333333 14,17.0666667 14,16.6666667 C14,16.2666667 14.2666667,16 14.6666667,16 L14.6666667,16 C15.0666667,16 15.3333333,16.2666667 15.3333333,16.6666667 C15.3333333,17.0666667 15.0666667,17.3333333 14.6666667,17.3333333 Z" id="Shape" fill="#F56920"></path><path d="M20,16 C19.6,16 19.3333333,15.7333333 19.3333333,15.3333333 C19.3333333,14.9333333 19.6,14.6666667 20,14.6666667 L20,14.6666667 C20.4,14.6666667 20.6666667,14.9333333 20.6666667,15.3333333 C20.6666667,15.7333333 20.4,16 20,16 Z" id="Shape" fill="#F56920"></path><path d="M9.33333333,21.3333333 C8.93333333,21.3333333 8.66666667,21.0666667 8.66666667,20.6666667 C8.66666667,20.2666667 8.93333333,20 9.33333333,20 L9.33333333,20 C9.73333333,20 10,20.2666667 10,20.6666667 C10,21.0666667 9.73333333,21.3333333 9.33333333,21.3333333 Z" id="Shape" fill="#F56920"></path><path d="M6.66666667,17.3333333 C6.26666667,17.3333333 6,17.0666667 6,16.6666667 C6,16.2666667 6.26666667,16 6.66666667,16 L6.66666667,16 C7.06666667,16 7.33333333,16.2666667 7.33333333,16.6666667 C7.33333333,17.0666667 7.06666667,17.3333333 6.66666667,17.3333333 Z" id="Shape" fill="#F56920"></path><path d="M10.6666667,16 C10.2666667,16 10,15.7333333 10,15.3333333 C10,14.9333333 10.2666667,14.6666667 10.6666667,14.6666667 L10.6666667,14.6666667 C11.0666667,14.6666667 11.3333333,14.9333333 11.3333333,15.3333333 C11.3333333,15.7333333 11.0666667,16 10.6666667,16 Z" id="Shape" fill="#F56920"></path><path d="M5.33333333,13.3333333 C4.93333333,13.3333333 4.66666667,13.0666667 4.66666667,12.6666667 C4.66666667,12.2666667 4.93333333,12 5.33333333,12 L5.33333333,12 C5.73333333,12 6,12.2666667 6,12.6666667 C6,13.0666667 5.73333333,13.3333333 5.33333333,13.3333333 Z" id="Shape" fill="#F56920"></path><path d="M22.6666667,13.3333333 C22.2666667,13.3333333 22,13.0666667 22,12.6666667 C22,12.2666667 22.2666667,12 22.6666667,12 L22.6666667,12 C23.0666667,12 23.3333333,12.2666667 23.3333333,12.6666667 C23.3333333,13.0666667 23.0666667,13.3333333 22.6666667,13.3333333 Z" id="Shape" fill="#F56920"></path><path d="M21.3333333,8 C20.9333333,8 20.6666667,7.73333333 20.6666667,7.33333333 C20.6666667,6.93333333 20.9333333,6.66666667 21.3333333,6.66666667 L21.3333333,6.66666667 C21.7333333,6.66666667 22,6.93333333 22,7.33333333 C22,7.73333333 21.7333333,8 21.3333333,8 Z" id="Shape" fill="#F56920"></path><path d="M14.6666667,28 C6.93333333,28 0.666666667,21.7333333 0.666666667,14 C0.666666667,6.26666667 6.93333333,0 14.6666667,0 C22.4,0 28.6666667,6.26666667 28.6666667,14 C28.6666667,21.7333333 22.4,28 14.6666667,28 Z M14.6666667,1.33333333 C7.73333333,1.33333333 2,7.06666667 2,14 C2,20.9333333 7.73333333,26.6666667 14.6666667,26.6666667 C21.6,26.6666667 27.3333333,20.9333333 27.3333333,14 C27.3333333,7.06666667 21.6,1.33333333 14.6666667,1.33333333 Z" id="Shape" fill="#F56920"></path></g></g></g></svg>