<svg xmlns:xlink="http://www.w3.org/1999/xlink" xmlns="http://www.w3.org/2000/svg" class="style-svg entered lazyloading replaced-svg svg-replaced-6" id="svg-replaced-6" viewBox="0 0 40 40" height="40px" width="40px"><title>Artboard</title><desc>Created with Sketch.</desc><defs></defs><g fill-rule="evenodd" fill="none" stroke-width="1" stroke="none" id="Page-1"><g fill-rule="nonzero" id="Artboard"><g transform="translate(0.000000, 8.000000)" id="bike.2"><path fill="#D3D3D3" id="Shape" d="M20.6666667,17.3333333 C20.4,17.3333333 20.2666667,17.2 20.1333333,17.0666667 L12.1333333,5.73333333 C12,5.6 12,5.33333333 12,5.06666667 L13.0666667,2 L10.6666667,2 C8.26666667,2 8,2.13333333 8,2.66666667 C8,2.93333333 8.13333333,3.06666667 8.26666667,3.2 C8.4,3.33333333 8.53333333,3.33333333 8.53333333,3.33333333 C8.93333333,3.33333333 9.2,3.46666667 9.33333333,3.86666667 C9.33333333,4.26666667 9.2,4.53333333 8.8,4.66666667 C8.26666667,4.8 7.73333333,4.53333333 7.33333333,4.26666667 C6.93333333,3.86666667 6.66666667,3.2 6.66666667,2.66666667 C6.66666667,0.666666667 8.53333333,0.666666667 10.6666667,0.666666667 L14,0.666666667 C14.2666667,0.666666667 14.4,0.8 14.5333333,0.933333333 C14.6666667,1.06666667 14.6666667,1.33333333 14.6666667,1.6 L13.4666667,5.33333333 L20.5333333,15.4666667 L26.6666667,1.06666667 C26.8,0.666666667 27.2,0.533333333 27.6,0.666666667 C28,0.933333333 28.1333333,1.2 28,1.6 L21.3333333,16.9333333 C21.2,17.2 20.9333333,17.3333333 20.6666667,17.3333333 L20.6666667,17.3333333 Z"></path><path fill="#D3D3D3" id="Shape" d="M28.6666667,2 L23.3333333,2 C22.9333333,2 22.6666667,1.73333333 22.6666667,1.33333333 C22.6666667,0.933333333 22.9333333,0.666666667 23.3333333,0.666666667 L28.6666667,0.666666667 C29.0666667,0.666666667 29.3333333,0.933333333 29.3333333,1.33333333 C29.3333333,1.73333333 29.0666667,2 28.6666667,2 Z"></path><path fill="#D3D3D3" id="Shape" d="M20.6666667,17.3333333 C20.2666667,17.3333333 20,17.0666667 20,16.6666667 C20,16.2666667 20.2666667,16 20.6666667,16 L30.2666667,15.4666667 L25.0666667,7.33333333 L13.2,6.13333333 L8.66666667,16.4 C8.53333333,16.8 8.13333333,16.9333333 7.73333333,16.8 C7.33333333,16.6666667 7.2,16.2666667 7.33333333,15.8666667 L12,5.2 C12.1333333,4.93333333 12.4,4.8 12.6666667,4.8 L25.3333333,6.13333333 C25.6,6.13333333 25.7333333,6.26666667 25.8666667,6.4 L31.8666667,15.7333333 C32,15.8666667 32,16.1333333 31.8666667,16.4 C31.7333333,16.6666667 31.6,16.8 31.3333333,16.8 L20.6666667,17.3333333 L20.6666667,17.3333333 Z"></path><path fill="#F56920" id="Shape" d="M8,23.3333333 C3.6,23.3333333 0,19.7333333 0,15.3333333 C0,10.9333333 3.6,7.33333333 8,7.33333333 C12.4,7.33333333 16,10.9333333 16,15.3333333 C16,19.7333333 12.4,23.3333333 8,23.3333333 Z M8,8.66666667 C4.26666667,8.66666667 1.33333333,11.6 1.33333333,15.3333333 C1.33333333,19.0666667 4.26666667,22 8,22 C11.7333333,22 14.6666667,19.0666667 14.6666667,15.3333333 C14.6666667,11.6 11.7333333,8.66666667 8,8.66666667 Z"></path><path fill="#F56920" id="Shape" d="M32,23.3333333 C27.6,23.3333333 24,19.7333333 24,15.3333333 C24,10.9333333 27.6,7.33333333 32,7.33333333 C36.4,7.33333333 40,10.9333333 40,15.3333333 C40,19.7333333 36.4,23.3333333 32,23.3333333 Z M32,8.66666667 C28.2666667,8.66666667 25.3333333,11.6 25.3333333,15.3333333 C25.3333333,19.0666667 28.2666667,22 32,22 C35.7333333,22 38.6666667,19.0666667 38.6666667,15.3333333 C38.6666667,11.6 35.7333333,8.66666667 32,8.66666667 Z"></path></g></g></g></svg>