<svg xmlns:xlink="http://www.w3.org/1999/xlink" xmlns="http://www.w3.org/2000/svg" class="style-svg entered lazyloading replaced-svg svg-replaced-5" id="svg-replaced-5" viewBox="0 0 40 40" height="40px" width="40px"><title>Artboard</title><desc>Created with Sketch.</desc><defs></defs><g fill-rule="evenodd" fill="none" stroke-width="1" stroke="none" id="Page-1"><g id="Artboard"><g transform="translate(5.000000, -1.000000)" id="Page-1"><path fill="#F56920" id="Fill-1" d="M10.8296,14.3623 L11.5616,13.3453 L8.0276,10.8013 C9.6506,10.6453 10.7046,10.3863 11.1596,10.0323 L11.2586,9.9563 L10.4886,8.9673 L10.3906,9.0443 C10.0106,9.3403 8.0886,9.5863 6.4336,9.6553 L3.2386,7.3563 L2.5066,8.3733 L10.7276,14.2893 L10.8296,14.3623 Z"></path><polygon points="2.1021 13.2857 5.9681 15.7307 1.3041 17.1487 1.6681 18.3477 7.3661 16.6147 11.3371 19.1257 12.0081 18.0677 2.7711 12.2267" fill="#F56920" id="Fill-3"></polygon><path fill="#F56920" id="Fill-5" d="M7.3232,6.9663 C8.7922,6.9663 10.1752,6.7213 11.4342,6.2393 L11.5502,6.1953 L11.1032,5.0243 L10.9862,5.0693 C8.7062,5.9403 6.0492,5.9353 3.1562,5.0543 L3.0372,5.0183 L2.6722,6.2173 L2.7912,6.2543 C4.3452,6.7263 5.8692,6.9663 7.3232,6.9663"></path><path fill="#F56920" id="Fill-7" d="M28.2271,8.3736 L27.4951,7.3566 L24.3001,9.6556 C22.6451,9.5856 20.7241,9.3396 20.3421,9.0436 L20.2441,8.9676 L19.4751,9.9566 L19.5741,10.0326 C20.0291,10.3866 21.0821,10.6456 22.7061,10.8016 L19.1711,13.3456 L19.9041,14.3626 L28.2271,8.3736 Z"></path><polygon points="24.7661 15.7305 28.6331 13.2855 27.9621 12.2265 18.8321 18.0005 18.7261 18.0675 19.3971 19.1265 23.3691 16.6145 29.0661 18.3485 29.4311 17.1485" fill="#F56920" id="Fill-9"></polygon><path fill="#F56920" id="Fill-11" d="M23.4106,6.9663 C24.8646,6.9663 26.3896,6.7263 27.9416,6.2543 L28.0616,6.2173 L27.6966,5.0183 L27.5776,5.0543 C24.6826,5.9363 22.0256,5.9413 19.7486,5.0693 L19.6316,5.0253 L19.1826,6.1943 L19.2996,6.2393 C20.5586,6.7213 21.9426,6.9663 23.4106,6.9663"></path><path fill="#D3D3D3" id="Fill-13" d="M11.3511,27.687 C11.1321,31.91 10.4961,38.099 10.1251,38.747 C9.6501,39.489 8.8071,39.939 8.2551,39.985 C8.0491,40.002 7.7191,40.011 7.2741,40.011 L7.1391,40.01 L7.1381,39.983 L6.9821,39.984 C6.8961,39.987 6.6431,39.995 6.3271,40 C5.9631,39.993 5.6931,39.985 5.6771,39.984 L5.5391,39.991 L5.5381,40.01 L5.3571,40.01 C4.9381,40.01 4.6231,40.002 4.4211,39.985 C3.8701,39.939 3.0271,39.49 2.5541,38.755 C2.1741,38.087 1.5101,31.519 1.3121,27.393 C2.0051,29.777 3.2741,32.101 6.2441,32.101 C9.0011,32.101 10.5621,29.598 11.3511,27.687 L11.3511,27.687 Z M12.3451,1.14 L11.1001,1 L10.0821,10.089 L10.0771,10.172 L10.0821,10.229 C10.0891,10.292 10.8821,17.389 11.2471,22.1 C11.2411,25.054 9.7241,30.847 6.2441,30.847 C2.8421,30.847 2.1921,26.393 1.5681,22.079 C1.9311,19.391 2.5881,15.529 3.5201,10.6 C3.5681,10.349 3.5961,10.2 3.6011,10.159 L3.6011,1.069 L2.3471,1.069 L2.3591,10.038 C2.2631,10.531 0.0001,22.147 0.0001,25.397 C0.0001,28.409 0.7601,38.281 1.4961,39.424 C2.1261,40.406 3.2871,41.15 4.3181,41.234 C4.5581,41.253 4.9141,41.263 5.4061,41.263 C5.7311,41.263 6.0601,41.258 6.3361,41.253 C6.6161,41.258 6.9441,41.263 7.2691,41.263 C7.7621,41.263 8.1181,41.253 8.3571,41.234 C9.3891,41.15 10.5501,40.406 11.1811,39.424 C11.9151,38.28 12.6761,28.409 12.6761,25.397 C12.6761,22.262 11.4721,11.376 11.3341,10.172 L12.3451,1.14 Z"></path><path fill="#D3D3D3" id="Fill-16" d="M28.1821,38.7495 C27.7051,39.4895 26.8641,39.9385 26.3121,39.9845 C26.1101,40.0025 25.7941,40.0105 25.3761,40.0105 L25.1951,40.0105 L25.1931,39.9765 L25.0661,39.9825 C25.0401,39.9845 24.7711,39.9925 24.4121,40.0005 C24.0961,39.9945 23.8451,39.9865 23.7551,39.9835 L23.7161,39.9825 L23.5911,40.0105 L23.4591,40.0115 C23.0151,40.0115 22.6861,40.0025 22.4801,39.9845 C21.9281,39.9385 21.0841,39.4885 20.6111,38.7525 C20.2391,38.0995 19.6021,31.9095 19.3831,27.6865 C20.1721,29.5985 21.7331,32.1005 24.4901,32.1005 C27.4591,32.1005 28.7291,29.7775 29.4221,27.3935 C29.2231,31.5195 28.5601,38.0865 28.1821,38.7495 M28.3771,10.0625 L28.3871,1.0685 L27.1341,1.0685 L27.1351,10.1775 C27.1391,10.2005 27.1671,10.3485 27.2141,10.5995 C28.1461,15.5285 28.8021,19.3905 29.1661,22.0795 C28.5411,26.3925 27.8921,30.8475 24.4901,30.8475 C21.0111,30.8475 19.4941,25.0545 19.4871,22.1095 C19.8521,17.3785 20.6441,10.2915 20.6511,10.2275 L20.6571,10.1455 L19.6481,1.1245 L19.6341,0.9995 L18.3891,1.1395 L19.4001,10.1455 C19.2621,11.3755 18.0581,22.2625 18.0581,25.3975 C18.0581,28.4095 18.8181,38.2805 19.5521,39.4245 C20.1831,40.4055 21.3441,41.1495 22.3751,41.2335 C22.6161,41.2535 22.9721,41.2635 23.4641,41.2635 C23.7891,41.2635 24.1181,41.2585 24.3941,41.2535 C24.6731,41.2585 25.0021,41.2635 25.3281,41.2635 C25.8201,41.2635 26.1761,41.2535 26.4151,41.2335 C27.4471,41.1495 28.6081,40.4055 29.2401,39.4245 C29.9571,38.3055 30.7351,28.3245 30.7351,25.3975 C30.7351,22.2585 28.6191,11.2935 28.3771,10.0625"></path></g></g></g></svg>