<svg xmlns:xlink="http://www.w3.org/1999/xlink" xmlns="http://www.w3.org/2000/svg" class="style-svg entered lazyloaded replaced-svg svg-replaced-1" id="svg-replaced-1" viewBox="0 0 40 40" height="40px" width="40px"><title>Artboard</title><desc>Created with Sketch.</desc><defs></defs><g fill-rule="evenodd" fill="none" stroke-width="1" stroke="none" id="Page-1"><g fill-rule="nonzero" id="Artboard"><g id="baseball.1"><path fill="#D3D3D3" id="Shape" d="M20,39.3333333 C9.33333333,39.3333333 0.666666667,30.6666667 0.666666667,20 C0.666666667,9.33333333 9.33333333,0.666666667 20,0.666666667 C30.6666667,0.666666667 39.3333333,9.33333333 39.3333333,20 C39.3333333,30.6666667 30.6666667,39.3333333 20,39.3333333 Z M20,2 C10.1333333,2 2,10.1333333 2,20 C2,29.8666667 10.1333333,38 20,38 C29.8666667,38 38,29.8666667 38,20 C38,10.1333333 29.8666667,2 20,2 Z"></path><path fill="#F56920" id="Shape" d="M38.6666667,20.6666667 C28,20.6666667 19.3333333,12 19.3333333,1.33333333 C19.3333333,0.933333333 19.6,0.666666667 20,0.666666667 C20.4,0.666666667 20.6666667,0.933333333 20.6666667,1.33333333 C20.6666667,11.2 28.8,19.3333333 38.6666667,19.3333333 C39.0666667,19.3333333 39.3333333,19.6 39.3333333,20 C39.3333333,20.4 39.0666667,20.6666667 38.6666667,20.6666667 Z"></path><path fill="#F56920" id="Shape" d="M20,39.3333333 C19.6,39.3333333 19.3333333,39.0666667 19.3333333,38.6666667 C19.3333333,28.8 11.2,20.6666667 1.33333333,20.6666667 C0.933333333,20.6666667 0.666666667,20.4 0.666666667,20 C0.666666667,19.6 0.933333333,19.3333333 1.33333333,19.3333333 C12,19.3333333 20.6666667,28 20.6666667,38.6666667 C20.6666667,39.0666667 20.4,39.3333333 20,39.3333333 Z"></path><path fill="#F56920" id="Shape" d="M4,22 C3.6,22 3.33333333,21.7333333 3.33333333,21.3333333 L3.33333333,18.6666667 C3.33333333,18.2666667 3.6,18 4,18 C4.4,18 4.66666667,18.2666667 4.66666667,18.6666667 L4.66666667,21.3333333 C4.66666667,21.7333333 4.4,22 4,22 Z"></path><path fill="#F56920" id="Shape" d="M9.6,23.2 L9.33333333,23.2 C8.93333333,23.0666667 8.8,22.6666667 9.06666667,22.2666667 L10.1333333,19.8666667 C10.2666667,19.4666667 10.6666667,19.3333333 11.0666667,19.6 C11.4666667,19.7333333 11.6,20.1333333 11.3333333,20.5333333 L10.2666667,22.9333333 C10.1333333,23.0666667 9.86666667,23.2 9.6,23.2 Z"></path><path fill="#F56920" id="Shape" d="M21.3333333,35.3333333 L17.3333333,35.3333333 C16.9333333,35.3333333 16.6666667,35.0666667 16.6666667,34.6666667 C16.6666667,34.2666667 16.9333333,34 17.3333333,34 L21.3333333,34 C21.7333333,34 22,34.2666667 22,34.6666667 C22,35.0666667 21.7333333,35.3333333 21.3333333,35.3333333 Z"></path><path fill="#F56920" id="Shape" d="M16.1333333,29.7333333 C15.8666667,29.7333333 15.6,29.6 15.4666667,29.3333333 C15.3333333,28.9333333 15.4666667,28.6666667 15.7333333,28.4 L18.1333333,27.3333333 C18.5333333,27.2 18.8,27.3333333 19.0666667,27.6 C19.2,28 19.0666667,28.2666667 18.8,28.5333333 L16.4,29.6 C16.2666667,29.7333333 16.1333333,29.7333333 16.1333333,29.7333333 Z"></path><path fill="#F56920" id="Shape" d="M13.4666667,25.8666667 C13.3333333,25.8666667 13.0666667,25.8666667 12.9333333,25.7333333 C12.6666667,25.4666667 12.6666667,25.0666667 12.9333333,24.8 L14.8,22.9333333 C15.0666667,22.6666667 15.4666667,22.6666667 15.7333333,22.9333333 C16,23.2 16,23.6 15.7333333,23.8666667 L13.8666667,25.7333333 C13.7333333,25.8666667 13.6,25.8666667 13.4666667,25.8666667 Z"></path><path fill="#F56920" id="Shape" d="M36,21.3333333 C35.6,21.3333333 35.3333333,21.0666667 35.3333333,20.6666667 L35.3333333,18 C35.3333333,17.6 35.6,17.3333333 36,17.3333333 C36.4,17.3333333 36.6666667,17.6 36.6666667,18 L36.6666667,20.6666667 C36.6666667,21.0666667 36.4,21.3333333 36,21.3333333 Z"></path><path fill="#F56920" id="Shape" d="M29.2,19.8666667 L28.9333333,19.8666667 C28.5333333,19.7333333 28.4,19.3333333 28.6666667,18.9333333 L29.7333333,16.5333333 C29.8666667,16.1333333 30.2666667,16 30.6666667,16.2666667 C31.0666667,16.4 31.2,16.8 30.9333333,17.2 L29.8666667,19.6 C29.7333333,19.7333333 29.4666667,19.8666667 29.2,19.8666667 Z"></path><path fill="#F56920" id="Shape" d="M22,6 L18.6666667,6 C18.2666667,6 18,5.73333333 18,5.33333333 C18,4.93333333 18.2666667,4.66666667 18.6666667,4.66666667 L22,4.66666667 C22.4,4.66666667 22.6666667,4.93333333 22.6666667,5.33333333 C22.6666667,5.73333333 22.4,6 22,6 Z"></path><path fill="#F56920" id="Shape" d="M21.4666667,12.1333333 C21.2,12.1333333 20.9333333,12 20.8,11.7333333 C20.6666667,11.3333333 20.8,11.0666667 21.0666667,10.8 L23.4666667,9.73333333 C23.8666667,9.6 24.1333333,9.73333333 24.4,10 C24.5333333,10.4 24.4,10.6666667 24.1333333,10.9333333 L21.7333333,12 C21.7333333,12.1333333 21.6,12.1333333 21.4666667,12.1333333 Z"></path><path fill="#F56920" id="Shape" d="M24.6666667,16.6666667 C24.5333333,16.6666667 24.2666667,16.6666667 24.1333333,16.5333333 C23.8666667,16.2666667 23.8666667,15.8666667 24.1333333,15.6 L26,13.7333333 C26.2666667,13.4666667 26.6666667,13.4666667 26.9333333,13.7333333 C27.2,14 27.2,14.4 26.9333333,14.6666667 L25.0666667,16.5333333 C25.0666667,16.5333333 24.8,16.6666667 24.6666667,16.6666667 Z"></path></g></g></g></svg>