<svg xmlns="http://www.w3.org/2000/svg" xmlns:xlink="http://www.w3.org/1999/xlink" width="40px" height="40px" viewBox="0 0 40 40"><title>Artboard</title><desc>Created with Sketch.</desc><defs></defs><g id="Page-1" stroke="none" stroke-width="1" fill="none" fill-rule="evenodd"><g id="Artboard" fill-rule="nonzero"><g id="soccer-ball.2"><path d="M11.3333333,16 C11.0666667,16 10.8,15.8666667 10.8,15.6 L8.13333333,10.2666667 C7.86666667,10 8,9.73333333 8.26666667,9.46666667 L14.9333333,4.13333333 C15.0666667,4 15.4666667,4 15.6,4.13333333 L22.2666667,7.46666667 C22.4,7.6 22.5333333,7.73333333 22.6666667,7.86666667 C22.8,8 22.6666667,8.26666667 22.5333333,8.4 L18.5333333,15.0666667 C18.4,15.2 18.2666667,15.3333333 18,15.3333333 L11.3333333,16 L11.3333333,16 Z M9.46666667,10.1333333 L11.7333333,14.6666667 L17.6,14.1333333 L21.0666667,8.4 L15.4666667,5.6 L9.46666667,10.1333333 Z" id="Shape" fill="#F56920"></path><path d="M26,33.3333333 C25.8666667,33.3333333 25.7333333,33.3333333 25.6,33.2 L20.2666667,29.2 C20,29.0666667 20,28.6666667 20,28.4 L22.6666667,21.0666667 C22.8,20.8 22.9333333,20.6666667 23.2,20.6666667 L31.2,20 C31.6,20 31.8666667,20.2666667 31.8666667,20.5333333 L33.2,28.5333333 C33.2,28.8 33.0666667,29.0666667 32.9333333,29.2 L26.2666667,33.2 C26.2666667,33.3333333 26.1333333,33.3333333 26,33.3333333 Z M21.4666667,28.4 L26,31.8666667 L31.8666667,28.2666667 L30.8,21.3333333 L23.8666667,21.8666667 L21.4666667,28.4 Z" id="Shape" fill="#F56920"></path><path d="M8.66666667,36 C8.53333333,36 8.4,36 8.4,35.8666667 C8.13333333,35.7333333 8,35.3333333 8.13333333,34.9333333 L10.6666667,29.8666667 L7.06666667,23.2 L1.46666667,24 C1.06666667,24 0.8,23.7333333 0.666666667,23.4666667 C0.666666667,23.0666667 0.933333333,22.8 1.2,22.6666667 L7.2,22 C7.46666667,22 7.73333333,22.1333333 7.86666667,22.4 L11.8666667,29.7333333 C12,29.8666667 12,30.1333333 11.8666667,30.4 L9.2,35.7333333 C9.2,35.8666667 8.93333333,36 8.66666667,36 Z" id="Shape" fill="#F56920"></path><path d="M38.6666667,16 L38.5333333,16 L33.8666667,14.6666667 C33.7333333,14.6666667 33.6,14.5333333 33.4666667,14.4 L29.4666667,7.73333333 C29.3333333,7.6 29.3333333,7.46666667 29.3333333,7.33333333 L29.3333333,4 C29.3333333,3.6 29.6,3.33333333 30,3.33333333 C30.4,3.33333333 30.6666667,3.6 30.6666667,4 L30.6666667,7.2 L34.4,13.4666667 L38.8,14.6666667 C39.2,14.8 39.3333333,15.2 39.2,15.4666667 C39.2,15.8666667 38.9333333,16 38.6666667,16 Z" id="Shape" fill="#F56920"></path><path d="M23.3333333,22.1333333 C23.2,22.1333333 22.9333333,22 22.8,21.8666667 L17.4666667,15.0666667 C17.2,14.8 17.3333333,14.4 17.6,14.1333333 C17.8666667,13.8666667 18.2666667,14 18.5333333,14.2666667 L23.8666667,21.0666667 C24.1333333,21.3333333 24,21.7333333 23.7333333,22 C23.6,22 23.4666667,22.1333333 23.3333333,22.1333333 Z" id="Shape" fill="#F56920"></path><path d="M11.3333333,30.6666667 C11.0666667,30.6666667 10.6666667,30.4 10.6666667,30.1333333 C10.6666667,29.7333333 10.9333333,29.3333333 11.2,29.3333333 L20.5333333,28 C20.9333333,28 21.2,28.2666667 21.3333333,28.5333333 C21.3333333,28.9333333 21.0666667,29.2 20.8,29.3333333 L11.3333333,30.6666667 L11.3333333,30.6666667 Z" id="Shape" fill="#F56920"></path><path d="M24.6666667,39.3333333 L24.5333333,39.3333333 C24.1333333,39.2 24,38.9333333 24,38.5333333 L25.3333333,32.5333333 C25.4666667,32.1333333 25.7333333,32 26.1333333,32 C26.5333333,32.1333333 26.6666667,32.4 26.6666667,32.8 L25.3333333,38.8 C25.2,39.0666667 24.9333333,39.3333333 24.6666667,39.3333333 Z" id="Shape" fill="#F56920"></path><path d="M36.6666667,29.3333333 L32.6666667,29.3333333 C32.2666667,29.3333333 32,29.0666667 32,28.6666667 C32,28.2666667 32.2666667,28 32.6666667,28 L36.6666667,28 C37.0666667,28 37.3333333,28.2666667 37.3333333,28.6666667 C37.3333333,29.0666667 37.0666667,29.3333333 36.6666667,29.3333333 Z" id="Shape" fill="#F56920"></path><path d="M31.3333333,21.3333333 L31.0666667,21.3333333 C30.6666667,21.2 30.5333333,20.8 30.6666667,20.4 L33.3333333,13.7333333 C33.4666667,13.3333333 33.8666667,13.2 34.2666667,13.3333333 C34.6666667,13.4666667 34.8,13.8666667 34.6666667,14.2666667 L32,20.9333333 C31.8666667,21.2 31.6,21.3333333 31.3333333,21.3333333 Z" id="Shape" fill="#F56920"></path><path d="M22,8.66666667 C21.6,8.66666667 21.3333333,8.4 21.3333333,8 C21.3333333,7.6 21.6,7.33333333 22,7.33333333 L30,6.66666667 C30.2666667,6.66666667 30.6666667,6.93333333 30.6666667,7.33333333 C30.6666667,7.73333333 30.4,8 30,8 L22,8.66666667 L22,8.66666667 Z" id="Shape" fill="#F56920"></path><path d="M7.33333333,23.3333333 C7.2,23.3333333 7.06666667,23.3333333 7.06666667,23.2 C6.66666667,23.0666667 6.53333333,22.6666667 6.8,22.4 L10.8,15.0666667 C10.9333333,14.8 11.3333333,14.6666667 11.7333333,14.8 C12,14.9333333 12.1333333,15.3333333 12,15.7333333 L8,23.0666667 C7.73333333,23.2 7.6,23.3333333 7.33333333,23.3333333 Z" id="Shape" fill="#F56920"></path><path d="M8.66666667,10.6666667 L8.66666667,10.6666667 L3.86666667,10 C3.46666667,10 3.2,9.6 3.33333333,9.2 C3.33333333,8.8 3.73333333,8.53333333 4.13333333,8.66666667 L8.8,9.33333333 C9.06666667,9.33333333 9.33333333,9.73333333 9.33333333,10.1333333 C9.33333333,10.4 8.93333333,10.6666667 8.66666667,10.6666667 Z" id="Shape" fill="#F56920"></path><path d="M15.3333333,5.33333333 C14.9333333,5.33333333 14.6666667,5.06666667 14.6666667,4.66666667 L14.6666667,1.33333333 C14.6666667,0.933333333 14.9333333,0.666666667 15.3333333,0.666666667 C15.7333333,0.666666667 16,0.933333333 16,1.33333333 L16,4.66666667 C16,5.06666667 15.7333333,5.33333333 15.3333333,5.33333333 Z" id="Shape" fill="#F56920"></path><path d="M20,40 C8.93333333,40 0,31.0666667 0,20 C0,8.93333333 8.93333333,0 20,0 C31.0666667,0 40,8.93333333 40,20 C40,31.0666667 31.0666667,40 20,40 Z M20,1.33333333 C9.73333333,1.33333333 1.33333333,9.73333333 1.33333333,20 C1.33333333,30.2666667 9.73333333,38.6666667 20,38.6666667 C30.2666667,38.6666667 38.6666667,30.2666667 38.6666667,20 C38.6666667,9.73333333 30.2666667,1.33333333 20,1.33333333 Z" id="Shape" fill="#D3D3D3"></path></g></g></g></svg>