<svg xmlns="http://www.w3.org/2000/svg" xmlns:xlink="http://www.w3.org/1999/xlink" width="40px" height="40px" viewBox="0 0 40 40"><title>Artboard</title><desc>Created with Sketch.</desc><defs></defs><g id="Page-1" stroke="none" stroke-width="1" fill="none" fill-rule="evenodd"><g id="Artboard" fill-rule="nonzero"><g id="tennis" transform="translate(1.000000, 1.000000)"><path d="M19.0001662,24.5163328 C18.8711329,24.5163328 18.6130662,24.5163328 18.4840329,24.3872994 C18.2259662,24.1292328 18.2259662,23.7421328 18.4840329,23.4840661 L23.6453661,18.3227329 C23.9034327,18.0646662 24.2905327,18.0646662 24.5485994,18.3227329 C24.8066661,18.5807996 24.8066661,18.9678996 24.5485994,19.2259662 L19.3872662,24.3872994 C19.3872662,24.3872994 19.1291995,24.5163328 19.0001662,24.5163328 Z" id="Shape" fill="#D3D3D3"></path><path d="M16.4194996,24.5163328 C11.903333,24.5163328 7.12909981,22.5808328 3.77423322,19.2259662 C-0.741933339,14.7097997 -1,7.2258665 3.12906657,2.9677666 C7.25813314,-1.16129997 14.8710996,-0.903233312 19.3872662,3.61293325 C22.3550328,6.58069984 24.2905327,10.7097664 24.6776327,14.838833 C24.6776327,15.225933 24.4195661,15.4839996 24.1614994,15.613033 C23.7743994,15.613033 23.5163328,15.3549663 23.3872994,15.0968996 C22.8711661,10.5807331 20.5485662,6.70973317 18.3549995,4.64519989 C14.613033,0.516133321 7.77426646,0.12903333 4.16133321,3.87099991 C0.548399963,7.48393316 0.806466624,14.3226997 4.80649986,18.3227329 C7.90329979,21.4195328 12.290433,23.3550328 16.5485329,23.3550328 C16.9356329,23.3550328 17.1936996,23.6130994 17.1936996,24.0001994 C17.1936996,24.3872994 16.8065996,24.5163328 16.4194996,24.5163328 Z" id="Shape" fill="#D3D3D3"></path><path d="M24.1614994,24.5163328 L16.4194996,24.5163328 C16.0323996,24.5163328 15.7743329,24.2582661 15.7743329,23.8711661 C15.7743329,23.4840661 16.0323996,23.2259995 16.4194996,23.2259995 L23.5163328,23.2259995 L23.5163328,14.838833 C23.5163328,14.451733 23.7743994,14.1936663 24.1614994,14.1936663 C24.5485994,14.1936663 24.8066661,14.451733 24.8066661,14.838833 L24.8066661,23.8711661 C24.8066661,24.2582661 24.5485994,24.5163328 24.1614994,24.5163328 Z" id="Shape" fill="#D3D3D3"></path><path d="M35.7744991,38.7099991 L35.7744991,38.7099991 C35.5164325,38.7099991 35.3873991,38.5809658 35.2583658,38.4519324 C29.064766,31.6131659 21.8388995,24.5163328 20.2904995,24.5163328 C19.9033995,24.5163328 19.6453328,24.2582661 19.6453328,23.8711661 C19.6453328,23.4840661 19.9033995,23.2259995 20.2904995,23.2259995 C23.0001994,23.2259995 32.8067325,33.9357659 35.7744991,37.1615991 L37.4519324,35.4841658 C32.8067325,31.3550993 23.5163328,22.5808328 23.5163328,20.6453328 C23.5163328,20.2582329 23.7743994,20.0001662 24.1614994,20.0001662 C24.5485994,20.0001662 24.8066661,20.2582329 24.8066661,20.6453328 C24.9356994,21.9356661 32.0325326,28.903466 38.7422657,34.9680325 C38.8712991,35.0970658 39.0003324,35.2260992 39.0003324,35.4841658 C39.0003324,35.6131992 38.8712991,35.8712658 38.8712991,36.0002991 L36.2906325,38.5809658 C36.1615991,38.5809658 35.9035325,38.7099991 35.7744991,38.7099991 Z" id="Shape" fill="#D3D3D3"></path><path d="M19.0001662,19.3549995 C18.8711329,19.3549995 18.6130662,19.3549995 18.4840329,19.2259662 L5.58069984,6.32263318 C5.45166651,6.06456652 5.45166651,5.5484332 5.58069984,5.29036654 C5.8387665,5.16133321 6.35489983,5.16133321 6.61296649,5.29036654 L19.5162995,18.1936996 C19.7743662,18.4517662 19.7743662,18.8388662 19.5162995,19.0969329 C19.3872662,19.2259662 19.1291995,19.3549995 19.0001662,19.3549995 Z" id="Shape" fill="#F56920"></path><path d="M20.2904995,14.1936663 C20.1614662,14.1936663 19.9033995,14.1936663 19.7743662,14.064633 L10.0968664,4.38713323 C9.83879974,4.12906657 9.83879974,3.74196658 10.0968664,3.48389992 C10.3549331,3.22583326 10.7420331,3.22583326 11.0000997,3.48389992 L20.6775995,13.1613997 C20.9356661,13.4194663 20.9356661,13.8065663 20.6775995,14.064633 C20.6775995,14.064633 20.4195328,14.1936663 20.2904995,14.1936663 Z" id="Shape" fill="#F56920"></path><path d="M13.838833,20.6453328 C13.7097997,20.6453328 13.451733,20.6453328 13.3226997,20.5162995 L3.64519989,10.8387997 C3.38713323,10.5807331 3.38713323,10.1936331 3.64519989,9.93556643 C3.90326655,9.67749977 4.29036654,9.67749977 4.5484332,9.93556643 L14.225933,19.6130662 C14.4839996,19.8711329 14.4839996,20.2582329 14.225933,20.5162995 C14.225933,20.5162995 13.9678663,20.6453328 13.838833,20.6453328 Z" id="Shape" fill="#F56920"></path><path d="M4.16133321,14.1936663 C4.03229988,14.1936663 3.77423322,14.1936663 3.64519989,14.064633 C3.38713323,13.8065663 3.38713323,13.4194663 3.64519989,13.1613997 L13.3226997,3.48389992 C13.5807663,3.22583326 13.9678663,3.22583326 14.225933,3.48389992 C14.4839996,3.74196658 14.4839996,4.12906657 14.225933,4.38713323 L4.5484332,14.064633 C4.5484332,14.064633 4.29036654,14.1936663 4.16133321,14.1936663 Z" id="Shape" fill="#F56920"></path><path d="M10.6129997,20.6453328 C10.4839664,20.6453328 10.2258997,20.6453328 10.0968664,20.5162995 C9.83879974,20.2582329 9.83879974,19.8711329 10.0968664,19.6130662 L19.7743662,9.93556643 C20.0324328,9.67749977 20.4195328,9.67749977 20.6775995,9.93556643 C20.9356661,10.1936331 20.9356661,10.5807331 20.6775995,10.8387997 L11.0000997,20.5162995 C11.0000997,20.5162995 10.7420331,20.6453328 10.6129997,20.6453328 Z" id="Shape" fill="#F56920"></path><path d="M7.38716647,17.4194996 C7.25813314,17.4194996 7.00006648,17.4194996 6.87103315,17.2904663 C6.61296649,17.0323996 6.61296649,16.6452996 6.87103315,16.3872329 L16.5485329,6.70973317 C16.8065996,6.45166651 17.1936996,6.45166651 17.4517662,6.70973317 C17.7098329,6.96779984 17.7098329,7.35489983 17.4517662,7.61296649 L7.77426646,17.2904663 C7.77426646,17.2904663 7.5161998,17.4194996 7.38716647,17.4194996 Z" id="Shape" fill="#F56920"></path><path d="M6.09683317,38.7099991 C4.80649986,38.7099991 3.51616656,38.3228991 2.48389992,37.4196658 C2.35486659,37.2906325 2.22583326,37.1615991 2.22583326,36.9035325 C2.22583326,36.6454658 2.35486659,36.5164325 2.48389992,36.3873991 C3.51616656,35.4841658 4.16133321,34.1938325 4.16133321,32.9034992 C4.16133321,31.6131659 3.51616656,30.3228326 2.48389992,29.4195993 C2.35486659,29.290566 2.22583326,29.1615326 2.22583326,28.903466 C2.22583326,28.6453993 2.35486659,28.516366 2.48389992,28.3873327 C4.5484332,26.7098994 7.64523313,26.7098994 9.70976641,28.3873327 C9.83879974,28.516366 9.96783307,28.6453993 9.96783307,28.903466 C9.96783307,29.1615326 9.83879974,29.290566 9.70976641,29.4195993 C8.67749977,30.3228326 8.03233312,31.6131659 8.03233312,32.9034992 C8.03233312,34.1938325 8.67749977,35.4841658 9.70976641,36.3873991 C9.83879974,36.5164325 9.96783307,36.6454658 9.96783307,36.9035325 C9.96783307,37.1615991 9.83879974,37.2906325 9.70976641,37.4196658 C8.67749977,38.1938658 7.38716647,38.7099991 6.09683317,38.7099991 Z M3.90326655,36.7744991 C5.19359985,37.5486991 7.00006648,37.5486991 8.29039978,36.7744991 C7.25813314,35.7422325 6.74199982,34.3228659 6.74199982,32.9034992 C6.74199982,31.4841326 7.25813314,30.064766 8.29039978,29.0324993 C7.00006648,28.2582993 5.19359985,28.2582993 3.90326655,29.0324993 C4.93553319,30.064766 5.45166651,31.4841326 5.45166651,32.9034992 C5.45166651,34.3228659 4.93553319,35.7422325 3.90326655,36.7744991 Z" id="Shape" fill="#D3D3D3"></path><path d="M6.09683317,38.7099991 C2.87099991,38.7099991 0.290333303,36.1293325 0.290333303,32.9034992 C0.290333303,29.677666 2.87099991,27.0969994 6.09683317,27.0969994 C9.32266642,27.0969994 11.903333,29.677666 11.903333,32.9034992 C11.903333,36.1293325 9.32266642,38.7099991 6.09683317,38.7099991 Z M6.09683317,28.3873327 C3.64519989,28.3873327 1.58066661,30.4518659 1.58066661,32.9034992 C1.58066661,35.3551325 3.64519989,37.4196658 6.09683317,37.4196658 C8.54846644,37.4196658 10.6129997,35.3551325 10.6129997,32.9034992 C10.6129997,30.4518659 8.54846644,28.3873327 6.09683317,28.3873327 Z" id="Shape" fill="#D3D3D3"></path></g></g></g></svg>